<?xml version="1.0" encoding="utf-8"?>
<!-- Generator: Adobe Illustrator 24.2.3, SVG Export Plug-In . SVG Version: 6.00 Build 0)  -->
<svg version="1.1" id="Layer_1" xmlns="http://www.w3.org/2000/svg" xmlns:xlink="http://www.w3.org/1999/xlink" x="0px" y="0px"
	 viewBox="0 0 491.7 150.6" style="enable-background:new 0 0 491.7 150.6;" xml:space="preserve">
<style type="text/css">
	.st0{fill:none;stroke:#C8C8C8;stroke-width:2;}
	.st1{fill:none;stroke:#919191;stroke-width:2;}
	.st2{fill:none;stroke:#595959;stroke-width:2;}
	.st3{fill:none;stroke:#949394;stroke-width:2;}
	.st4{fill:#222222;}
	.st5{fill:#FFFFFF;}
	.st6{fill:#909090;}
	.st7{fill:#282629;}
</style>
<g>
	<path vector-effect="non-scaling-stroke" class="st0" d="M21.5,24.4H6.8c-0.3,0-0.5,0.2-0.5,0.5L6.2,141.4c0,0.3,0.2,0.5,0.5,0.5
		h461c0.5,0,0.8-0.4,0.8-0.9l0.2-14.4"/>
	<path vector-effect="non-scaling-stroke" class="st1" d="M468.7,126.6l16.4-0.2c0.3,0,0.5-0.2,0.5-0.5l0-118.3
		c0-0.2-0.2-0.4-0.4-0.4H22c-0.3,0-0.5,0.3-0.5,0.6l0,16.7"/>
	<path vector-effect="non-scaling-stroke" class="st2" d="M468.7,126.6c-0.5-0.1-1.3-0.2-2.5-0.2c-110.9,0.1-258.9,0.1-444.1-0.2
		c-0.3,0-0.5-0.2-0.5-0.5L21.5,24.4"/>
	<path vector-effect="non-scaling-stroke" class="st1" d="M106.3,11c-26.6-0.2-53.4-0.2-80.4-0.1c-0.4,0-0.7,0.3-0.7,0.7v110.6
		c0,0.4,0.3,0.7,0.7,0.7l455.2-0.1c0.3,0,0.5-0.2,0.5-0.5l0.1-110.8c0-0.3-0.2-0.5-0.5-0.5c-118.3-0.2-236.6-0.1-354.9,0.1
		C120.1,11.1,113.4,11,106.3,11"/>
	<path vector-effect="non-scaling-stroke" class="st1" d="M307.2,34.8c-2.5,2.8-4.1,5.9-4.6,9.4c-0.2,1.5-0.7,4.4-1.2,8.8
		c-0.7,5.4-1.1,8.3-1.1,8.8c-0.2,5.9,2.1,10.1,6.9,12.5c3.8,2,8.1,2.6,12.7,2c5.9-0.9,10.8-4.1,14.8-9.7c0.2-0.2,0.1-0.6-0.1-0.7
		l-8.5-4.1c-0.3-0.1-0.6-0.1-0.8,0.2c-3,3.7-6.6,4.6-10.8,2.6c-1.8-0.8-2.5-2.2-2.2-4.2c0.8-5.2,1.5-10.2,2.1-15.2
		c0.3-2.2,1.3-3.8,3-4.8c3.8-2,7.5-1.4,11,1.9c0.3,0.3,0.7,0.3,1.1,0.2l8.5-3.2c0.5-0.2,0.8-0.8,0.6-1.3c-3.3-7.4-9.1-10.6-17.4-9.7
		C315.1,28.9,310.5,31.1,307.2,34.8"/>
	<path vector-effect="non-scaling-stroke" class="st1" d="M345.3,36.1c-1.6,1.8-2.6,3.6-3,5.2c-0.8,2.9-1.4,6.3-1.9,10.3
		c0,0.2-0.4,2.5-1.1,6.9c-0.4,2.7-0.4,5.1,0,7.1c1.1,5.1,4.4,8.5,10,10c3.8,1.1,8.1,1.1,12.8,0.2c5.8-1.1,10.2-3.8,13.2-8.1
		c1.4-2,2.5-4.9,3.3-8.9c1.5-7.7,2.3-13.1,2.3-16.3c0-4.5-1.6-8-4.9-10.6c-2.5-1.9-5.4-3.1-8.5-3.6c-2.8-0.4-5.9-0.3-9,0.2
		C353.1,29.6,348.8,32,345.3,36.1"/>
	<path vector-effect="non-scaling-stroke" class="st1" d="M202.8,39.7l11.8,0c0.3,0,0.5-0.2,0.6-0.5l1.4-9.7
		c0.1-0.4-0.3-0.8-0.7-0.8h-36.2c-0.3,0-0.6,0.2-0.6,0.5l-1.5,9.9c-0.1,0.3,0.2,0.6,0.5,0.6l11.7,0.1c0.2,0,0.3,0.1,0.3,0.3
		l-4.8,35.2c-0.1,0.5,0.3,0.9,0.8,0.9h10.5c0.4,0,0.8-0.3,0.8-0.7l4.8-35.2C202.3,39.9,202.5,39.7,202.8,39.7"/>
	<path vector-effect="non-scaling-stroke" class="st1" d="M72.5,59.7c8.2-4.1,11.8-10.4,10.7-18.8c-0.4-3.5-1.7-6.2-3.8-8.1
		c-2.3-2.2-5.3-3.4-8.9-3.6c-6.9-0.4-13.9-0.4-20.8-0.1c-0.3,0-0.5,0.2-0.6,0.5l-6.5,45.8c0,0.3,0.2,0.5,0.4,0.5l10.7,0.2
		c0.4,0,0.8-0.3,0.8-0.8c0.6-4.4,1.2-8.4,1.8-12c0-0.1,0-0.4,0.1-1c0.1-1.2,0.7-1.6,1.9-1.2c0.3,0.1,0.5,0.3,0.7,0.6l9,13.8
		c0.2,0.4,0.6,0.6,1.1,0.6h13c0.8,0,0.9-0.3,0.5-0.9L72.3,60.4C72.2,60.1,72.3,59.8,72.5,59.7"/>
	<path vector-effect="non-scaling-stroke" class="st1" d="M103.8,65.5c-3.3-0.6-4.8-2.5-4.3-5.6c1.4-10,2.8-20.2,4.3-30.4
		c0-0.3-0.2-0.6-0.5-0.6h-11c-0.3,0-0.6,0.2-0.6,0.5c-1.3,9-2.5,17.9-3.7,26.8c-0.7,5-0.7,8.6,0.1,10.8c1.3,4,4.3,6.7,8.8,8.3
		c4.9,1.7,9.9,1.7,14.8,0c5.7-2,9.6-5.3,11.8-10.1c0.8-1.8,1.8-6.5,2.9-14.3c1.1-7.2,2-14.4,3-21.5c0-0.3-0.2-0.5-0.4-0.5h-10.9
		c-0.3,0-0.5,0.2-0.6,0.5c-1.4,9.2-2.7,18.5-4,27.8c-0.4,3.1-1.2,5.2-2.3,6.3C109.4,65.4,107,66,103.8,65.5"/>
	<path vector-effect="non-scaling-stroke" class="st1" d="M159,57.4c-0.8-3.7-2-7.5-3.7-11.6c-3-7.1-5.4-12.6-7.1-16.5
		c-0.1-0.3-0.4-0.5-0.7-0.5l-10.1,0c-0.4,0-0.6,0.3-0.7,0.6l-6.5,46.1c0,0.3,0.2,0.5,0.4,0.5l10.6,0c0.3,0,0.5-0.2,0.6-0.5
		c1.8-8.5,2.7-17.2,2.7-26.1c0-1.4,0.2-1.5,0.7-0.1c2.8,8.8,6.3,17.5,10.3,26.2c0.2,0.3,0.5,0.6,0.9,0.6l10.8-0.1
		c0.3,0,0.5-0.2,0.6-0.5l6.5-46.2c0-0.3-0.2-0.5-0.4-0.5H163c-0.3,0-0.5,0.2-0.6,0.5c-0.7,4.9-1.5,9.8-2.3,14.6
		c-0.6,3.9-0.8,8.3-0.5,13.3c0,0.3-0.1,0.5-0.2,0.5C159.3,57.9,159,57.7,159,57.4"/>
	<path vector-effect="non-scaling-stroke" class="st1" d="M231.1,46.1l2.1-16.4c0.1-0.4-0.3-0.8-0.7-0.8l-10.7,0
		c-0.3,0-0.5,0.2-0.6,0.5l-6.4,46c-0.1,0.3,0.2,0.6,0.5,0.6l10.7,0c0.4,0,0.7-0.3,0.7-0.7l2.3-16.7c0-0.3,0.3-0.5,0.6-0.5l12.5-0.1
		c0.4,0,0.7,0.4,0.7,0.8l-2.3,16.4c-0.1,0.4,0.3,0.8,0.7,0.8h10.6c0.3,0,0.5-0.2,0.6-0.5l6.6-46.1c0.1-0.3-0.2-0.7-0.5-0.6l-10.9,0
		c-0.3,0-0.5,0.2-0.6,0.5l-2.5,16.6c0,0.3-0.3,0.5-0.6,0.5h-12.4C231.3,46.6,231.1,46.3,231.1,46.1"/>
	<path vector-effect="non-scaling-stroke" class="st1" d="M275,57.7l18-0.1c0.3,0,0.6-0.2,0.6-0.5l1.4-9.4c0-0.3-0.2-0.5-0.5-0.5
		h-18.1c-0.3,0-0.5-0.3-0.4-0.5l0.8-5.9c0-0.3,0.3-0.5,0.6-0.5l19.8-0.2c0.3,0,0.5-0.2,0.6-0.5l1.4-10.1c0-0.3-0.2-0.5-0.5-0.5
		l-31.8,0.1c-0.3,0-0.5,0.2-0.6,0.5L260,75.3c-0.1,0.4,0.3,0.8,0.7,0.8h31.2c0.5,0,0.9-0.4,1-0.8l1.4-9.8c0.1-0.5-0.3-0.9-0.8-0.9
		l-19.4-0.2c-0.3,0-0.5-0.2-0.5-0.5l0.8-5.8C274.5,57.9,274.8,57.7,275,57.7"/>
	<path vector-effect="non-scaling-stroke" class="st1" d="M389.1,29.8l-6.5,45.8c0,0.3,0.2,0.5,0.5,0.5c4.7,0,9.4,0,14.1,0
		c3.6,0,7.1-0.5,10.5-1.5c6.1-1.7,10.2-5.6,12.2-11.5c1-3,2-9.5,3-19.5c0.5-5.3-1.4-9.3-5.9-12c-2.6-1.6-5-2.4-7.1-2.5
		c-6.2-0.3-12.9-0.3-19.9-0.2C389.6,28.9,389.2,29.3,389.1,29.8"/>
	<path vector-effect="non-scaling-stroke" class="st1" d="M438.8,64.1l0.8-6c0-0.3,0.3-0.5,0.6-0.5l18.1-0.2c0.3,0,0.5-0.2,0.6-0.5
		l1.2-8.9c0.1-0.5-0.3-0.9-0.8-0.9h-17.7c-0.3,0-0.5-0.2-0.5-0.5l0.9-5.7c0.1-0.5,0.5-0.8,1-0.8l19.3-0.2c0.3,0,0.6-0.2,0.6-0.5
		l1.4-10.1c0-0.3-0.2-0.5-0.5-0.5h-31.3c-0.5,0-0.9,0.3-0.9,0.8l-6.4,45.8c0,0.3,0.2,0.5,0.5,0.5l31.7,0.1c0.4,0,0.6-0.3,0.7-0.6
		l1.3-10.4c0-0.3-0.2-0.5-0.5-0.5l-19.5-0.1C439,64.6,438.8,64.3,438.8,64.1"/>
	<path vector-effect="non-scaling-stroke" class="st1" d="M179.3,103.7c-0.9-0.2-1.7-0.5-2.4-1c-0.3-0.2-0.6-0.3-0.9-0.3
		c-0.6,0.1-0.8,0.5-0.7,1c0,0.3,0.3,0.6,0.6,0.8c1.6,1.1,3.2,1.5,4.9,1.4c2.4-0.2,3.8-1.2,4.3-3.1c0.4-1.4,0-2.7-0.9-3.8
		c-0.9-1-2.2-1.7-3.8-2.1c-1.9-0.5-2.7-1.6-2.4-3.4c0.1-0.3,0.3-0.6,0.5-0.8c1.4-0.8,2.9-0.8,4.6,0.1c1.1,0.6,1.6,0.4,1.5-0.6
		c0-0.3-0.2-0.6-0.5-0.8c-1.3-0.8-2.7-1.2-4.2-1c-1.4,0.2-2.6,0.8-3.5,2c-1.6,2.1-1,3.9,2,5.4c1.9,1,3.3,1.8,4.2,2.3
		c0.3,0.2,0.4,0.5,0.5,0.8C183.5,103.2,182.3,104.2,179.3,103.7"/>
	<path vector-effect="non-scaling-stroke" class="st1" d="M271.4,92.1c-1.1,1.2-1.2,2.4-0.2,3.7c1.2,1.5,2.8,2.6,4.9,3.4
		c1.8,0.6,2.5,1.6,2,2.9c-0.3,0.9-1,1.5-2.1,1.7c-1.5,0.3-2.9,0-4.2-1c-0.3-0.2-0.6-0.3-0.9-0.2c-1.2,0.3-1.1,0.9,0.1,1.8
		c1.8,1.2,3.8,1.5,6.1,0.8c1.7-0.5,2.8-1.5,3-3c0.2-1.3-0.1-2.4-1.1-3.5c-1-1-2.2-1.7-3.7-2.1c-1.9-0.5-2.7-1.6-2.4-3.3
		c0.1-0.3,0.3-0.6,0.5-0.8c1.3-0.8,2.7-0.7,4.3,0.2c1.4,0.8,2,0.5,1.6-0.7c-0.1-0.3-0.3-0.6-0.6-0.7
		C276.1,89.4,273.7,89.8,271.4,92.1"/>
	<path vector-effect="non-scaling-stroke" class="st1" d="M300.1,105.7c3.6,0,6.5-3.5,6.5-7.8c0-4.3-2.9-7.9-6.5-7.9
		c-3.6,0-6.5,3.5-6.5,7.8C293.6,102.1,296.5,105.7,300.1,105.7"/>
	<path vector-effect="non-scaling-stroke" class="st1" d="M197.1,102.3c-1.8-3.4-3.7-6.7-5.7-10c0-0.1-0.2-0.3-0.4-0.8
		c-0.3-0.7-0.9-1.1-1.8-1.2c-0.6-0.1-1,0.4-1,0.9v13.4c0,0.3,0.2,0.6,0.4,0.7c0.4,0.1,0.7,0.1,1.1,0c0.3-0.1,0.5-0.4,0.5-0.7
		L190,94.4c0-1.1,0.2-1.2,0.8-0.2c1.9,3.5,3.8,7,5.9,10.4c0.5,0.8,1.1,1.1,1.9,0.8c0.3-0.1,0.4-0.4,0.4-0.7V91.2
		c0-0.3-0.2-0.6-0.5-0.7c-0.8-0.3-1.2,0.2-1.2,1.4c-0.1,3.5,0,6.9,0.2,10.3C197.5,102.8,197.3,102.9,197.1,102.3"/>
	<path vector-effect="non-scaling-stroke" class="st1" d="M205,103.1l0-4.2c0-0.3,0.2-0.5,0.5-0.5l4.6,0c0.3,0,0.5-0.2,0.5-0.5
		c0-1.3-0.9-1.7-2.5-1.3c-2.8,0.7-3.8-0.6-3-4c0.1-0.4,0.4-0.7,0.8-0.7h4.7c0.3,0,0.6-0.2,0.8-0.4c0.5-0.8,0.1-1.2-1-1.2
		c-2.1,0-4.3,0.1-6.7,0.1c-0.3,0-0.5,0.2-0.5,0.5l0.1,13.9c0,0.3,0.2,0.5,0.5,0.5l7.4,0.1c0.3,0,0.6-0.2,0.7-0.4
		c0.1-0.3,0.1-0.6,0-0.9c-0.1-0.3-0.4-0.4-0.7-0.4l-5.7-0.1C205.3,103.6,205,103.4,205,103.1"/>
	<path vector-effect="non-scaling-stroke" class="st1" d="M217.1,100.9l4.6,0c0.3,0,0.6,0.2,0.7,0.5c0.3,1.1,0.6,2.1,0.9,3
		c0.1,0.4,0.3,0.7,0.6,0.9c0.4,0.2,0.8,0.2,1.2,0.1c0.3-0.1,0.4-0.4,0.3-0.7c-1.5-4.3-2.9-8.7-4.3-13c-0.4-1.2-1.2-1.6-2.2-1.2
		c-0.3,0.1-0.5,0.4-0.6,0.7c-1.5,4.2-3,8.5-4.4,12.7c-0.4,1.3-0.1,1.8,0.9,1.4c0.3-0.1,0.6-0.4,0.6-0.7l1.1-3.2
		C216.5,101.1,216.8,100.9,217.1,100.9"/>
	<path vector-effect="non-scaling-stroke" class="st1" d="M229.8,97.1c-0.1-1.7-0.1-3.4-0.1-5.1c0-0.5-0.1-0.9-0.2-1.1
		c-0.3-0.5-0.7-0.7-1.3-0.4c-0.3,0.1-0.4,0.4-0.4,0.8v13.4c0,0.3,0.2,0.6,0.5,0.7c1.1,0.5,1.6,0,1.4-1.4c-0.4-2.6,0.4-4.6,2.4-6
		c0.2-0.1,0.5,0,0.6,0.2l4.1,6.8c0.2,0.3,0.5,0.5,0.8,0.5c0.4,0.1,0.7,0,0.8-0.3c0.1-0.2,0-0.5-0.2-0.9c-1.5-2.5-3-5.1-4.4-7.7
		c-0.2-0.3-0.1-0.6,0.1-0.8l3.6-4.6c0.2-0.2,0.1-0.5-0.2-0.6c-0.9-0.2-1.7,0.1-2.4,1.2c-1,1.5-2.5,3.4-4.6,5.5
		C229.9,97.5,229.8,97.4,229.8,97.1"/>
	<path vector-effect="non-scaling-stroke" class="st1" d="M243,103.1l0-4.2c0-0.3,0.3-0.5,0.6-0.5l4.5-0.1c0.3,0,0.5-0.3,0.5-0.6
		c0.1-1.2-0.7-1.6-2.4-1.1c-2.8,0.7-3.8-0.6-2.9-4.1c0.1-0.3,0.4-0.6,0.8-0.6l4.9,0c0.4,0,0.7-0.2,0.8-0.4c0.1-0.2,0.1-0.4,0-0.6
		c-0.1-0.3-0.4-0.5-0.8-0.4l-7.3,0.1c-0.3,0-0.5,0.3-0.5,0.6v13.6c0,0.3,0.2,0.5,0.5,0.5l7.5,0.1c0.3,0,0.6-0.2,0.7-0.5
		c0.4-1-0.1-1.4-1.4-1.2c-0.6,0.1-2.3,0.1-4.9,0C243.3,103.6,243,103.3,243,103.1"/>
	<path vector-effect="non-scaling-stroke" class="st1" d="M260.3,98.7c1.3-0.7,2.1-1.4,2.4-2.1c1.1-2.9,0.4-4.8-1.9-5.7
		c-1.8-0.7-4.1-0.8-7.1-0.4c-0.3,0-0.5,0.3-0.5,0.6c-0.2,4.1-0.2,8.2-0.2,12.3c0,0.1,0,0.4-0.1,1c-0.1,0.9,0.5,1.2,1.6,0.9
		c0.3-0.1,0.5-0.3,0.5-0.6v-4.8c0-0.3,0.2-0.6,0.5-0.7c1.6-0.3,2.7,0.1,3.2,1.2c0.7,1.5,1.5,3,2.5,4.4c0.2,0.3,0.4,0.5,0.7,0.6
		c0.3,0.1,0.6,0.1,1,0c0.3-0.1,0.4-0.4,0.2-0.7l-3-5.3C259.9,99.1,260,98.9,260.3,98.7"/>
	<path vector-effect="non-scaling-stroke" class="st1" d="M288.5,92.1l3-0.2c0.4,0,0.7-0.2,0.8-0.3c0.6-0.7,0.3-1.1-0.8-1.1
		c-1.2-0.1-4.3-0.1-9.2,0.1c-0.3,0-0.6,0.2-0.7,0.5c-0.2,0.9,0.8,1.1,2.8,0.7c0.8-0.2,1.5,0.4,1.5,1.2l0.1,11.7
		c0,0.3,0.2,0.6,0.5,0.7c1.1,0.4,1.6,0,1.5-1.4c-0.1-1.5-0.1-5.2,0-11.2C288.1,92.4,288.3,92.1,288.5,92.1"/>
	<path vector-effect="non-scaling-stroke" class="st1" d="M312.3,99.1c1.2-0.2,2.1,0.1,2.7,1.1c1,1.6,2,3.2,3,4.8
		c0.4,0.6,0.9,0.8,1.6,0.4c0.3-0.1,0.4-0.4,0.2-0.7l-2.9-5.1c-0.2-0.4-0.1-0.8,0.3-1c1.4-0.7,2.3-1.8,2.6-3.1c0.3-1.3,0-2.5-0.8-3.5
		c-0.9-1.1-2.2-1.7-3.9-1.6c-1.5,0-3,0-4.6,0c-0.4,0-0.7,0.3-0.7,0.7c0,4.4,0,8.6,0,12.6c0,1.4,0.5,2,1.5,1.6
		c0.3-0.1,0.5-0.4,0.5-0.7l0.1-4.9C311.8,99.4,312,99.1,312.3,99.1"/>
	<path vector-effect="non-scaling-stroke" class="st1" d="M325,103.1l0-4.2c0-0.3,0.3-0.5,0.6-0.5l4.5-0.1c0.3,0,0.5-0.3,0.5-0.6
		c0.1-1.2-0.7-1.6-2.4-1.1c-2.8,0.7-3.8-0.6-3-4.1c0.1-0.3,0.4-0.6,0.8-0.6l4.6,0c0.4,0,0.7-0.1,0.9-0.3c0.2-0.3,0.3-0.5,0.1-0.8
		c-0.2-0.2-0.5-0.3-0.9-0.3l-6.9,0.1c-0.3,0-0.5,0.2-0.5,0.5l0,13.9c0,0.3,0.2,0.5,0.5,0.5l7.7,0c0.3,0,0.6-0.2,0.6-0.5
		c0.1-0.8-0.2-1.2-1.1-1.2c-1.8,0-3.6,0-5.4-0.1C325.3,103.6,325,103.3,325,103.1"/>
	<path vector-effect="non-scaling-stroke" class="st3" d="M169.3,97.6c0-0.4-0.3-0.7-0.7-0.7H52.7c-0.4,0-0.7,0.3-0.7,0.7v0.7
		c0,0.4,0.3,0.7,0.7,0.7h115.9c0.4,0,0.7-0.3,0.7-0.7V97.6"/>
	<path vector-effect="non-scaling-stroke" class="st3" d="M455,97.7c0-0.4-0.4-0.8-0.8-0.8H338.5c-0.4,0-0.8,0.4-0.8,0.8v0.4
		c0,0.4,0.4,0.8,0.8,0.8h115.7c0.5,0,0.8-0.4,0.8-0.8V97.7"/>
	<path vector-effect="non-scaling-stroke" class="st1" d="M354.6,41.9c-0.7,0.7-1.1,1.5-1.3,2.5c-0.7,4.9-1.4,9.7-2.1,14.3
		c-0.2,1.6-0.3,2.8,0,3.5c0.4,1.3,1.3,2.2,2.7,2.7c4.1,1.5,7.6,1,10.4-1.7c1-1,1.7-2.5,2.1-4.4c0.9-4.8,1.6-9.9,2.2-15.2
		c0.2-1.4-0.4-2.5-1.6-3.3C362.5,37.8,358.3,38.3,354.6,41.9"/>
	<path vector-effect="non-scaling-stroke" class="st1" d="M68.4,40.3c-2.2-0.4-4.8-0.5-8-0.3c-0.4,0-0.8,0.4-0.9,0.8L58.2,50
		c0,0.3,0.2,0.6,0.5,0.7c1.8,0.1,3.5,0,5.1,0c2.2-0.1,3.8-0.5,4.9-1.3c1.9-1.4,2.7-3.5,2.2-6.4C70.7,41.4,69.9,40.5,68.4,40.3"/>
	<path vector-effect="non-scaling-stroke" class="st1" d="M399.6,40.7l-3.4,23.6c0,0.3,0.2,0.5,0.4,0.5c1.3,0.1,2.6,0.1,3.8,0
		c1.7-0.1,3-0.3,3.7-0.4c2.9-0.5,4.5-2.4,4.8-5.5c0.1-1.4,0.2-2.1,0.2-2.2c0.6-3.7,1.1-7.5,1.6-11.2c0.2-1.4,0.1-2.5-0.4-3.3
		c-0.6-1.3-1.6-2-2.9-2.2c-2-0.3-4.3-0.3-7.1-0.2C400,40,399.7,40.3,399.6,40.7"/>
	<path vector-effect="non-scaling-stroke" class="st1" d="M300.1,104c2.4,0,4.4-2.7,4.5-6.1c0-3.4-1.9-6.1-4.4-6.1
		c-2.4,0-4.4,2.7-4.5,6.1C295.7,101.2,297.7,103.9,300.1,104"/>
	<path vector-effect="non-scaling-stroke" class="st1" d="M218.9,93.3l-1.5,5.3c-0.1,0.3,0.1,0.5,0.4,0.5l3.3,0
		c0.3,0,0.4-0.3,0.4-0.5l-1.6-5.3C219.5,92.3,219.2,92.3,218.9,93.3"/>
	<path vector-effect="non-scaling-stroke" class="st1" d="M261,94.8c0.4-1.7-0.3-2.6-2.2-2.9c-1-0.1-1.7-0.2-2.2-0.2
		c-1.2,0-1.8,0.5-1.8,1.6c0,1.2,0,2.1,0,2.6c0.2,1.3,1.4,1.7,3.8,1.2C259.9,96.8,260.7,96.1,261,94.8"/>
	<path vector-effect="non-scaling-stroke" class="st1" d="M317.6,95.7c1.1-1.3,0.9-2.4-0.6-3.1c-1.5-0.7-3.1-1-4.7-0.8
		c-0.3,0-0.5,0.3-0.5,0.6l-0.1,4.2c0,0.3,0.2,0.6,0.5,0.7C314.4,97.9,316.2,97.4,317.6,95.7"/>
</g>
<path class="st4" d="M468.7,126.6c-0.5-0.1-1.3-0.2-2.5-0.2c-110.9,0.1-258.9,0.1-444.1-0.2c-0.3,0-0.5-0.2-0.5-0.5L21.5,24.4
	l0-16.7c0-0.3,0.3-0.6,0.5-0.6h463.2c0.2,0,0.4,0.2,0.4,0.4l0,118.3c0,0.3-0.2,0.5-0.5,0.5L468.7,126.6z M106.3,11
	c-26.6-0.2-53.4-0.2-80.4-0.1c-0.4,0-0.7,0.3-0.7,0.7v110.6c0,0.4,0.3,0.7,0.7,0.7l455.2-0.1c0.3,0,0.5-0.2,0.5-0.5l0.1-110.8
	c0-0.3-0.2-0.5-0.5-0.5c-118.3-0.2-236.6-0.1-354.9,0.1C120.1,11.1,113.4,11,106.3,11z"/>
<path class="st5" d="M126.3,11.1c118.3-0.2,236.6-0.3,354.9-0.1c0.3,0,0.5,0.2,0.5,0.5l-0.1,110.8c0,0.3-0.2,0.5-0.5,0.5l-455.2,0.1
	c-0.4,0-0.7-0.3-0.7-0.7V11.6c0-0.4,0.3-0.7,0.7-0.7c27-0.1,53.8,0,80.4,0.1C113.4,11,120.1,11.1,126.3,11.1z M307.2,34.8
	c-2.5,2.8-4.1,5.9-4.6,9.4c-0.2,1.5-0.7,4.4-1.2,8.8c-0.7,5.4-1.1,8.3-1.1,8.8c-0.2,5.9,2.1,10.1,6.9,12.5c3.8,2,8.1,2.6,12.7,2
	c5.9-0.9,10.8-4.1,14.8-9.7c0.2-0.2,0.1-0.6-0.1-0.7l-8.5-4.1c-0.3-0.1-0.6-0.1-0.8,0.2c-3,3.7-6.6,4.6-10.8,2.6
	c-1.8-0.8-2.5-2.2-2.2-4.2c0.8-5.2,1.5-10.2,2.1-15.2c0.3-2.2,1.3-3.8,3-4.8c3.8-2,7.5-1.4,11,1.9c0.3,0.3,0.7,0.3,1.1,0.2l8.5-3.2
	c0.5-0.2,0.8-0.8,0.6-1.3c-3.3-7.4-9.1-10.6-17.4-9.7C315.1,28.9,310.5,31.1,307.2,34.8z M345.3,36.1c-1.6,1.8-2.6,3.6-3,5.2
	c-0.8,2.9-1.4,6.3-1.9,10.3c0,0.2-0.4,2.5-1.1,6.9c-0.4,2.7-0.4,5.1,0,7.1c1.1,5.1,4.4,8.5,10,10c3.8,1.1,8.1,1.1,12.8,0.2
	c5.8-1.1,10.2-3.8,13.2-8.1c1.4-2,2.5-4.9,3.3-8.9c1.5-7.7,2.3-13.1,2.3-16.3c0-4.5-1.6-8-4.9-10.6c-2.5-1.9-5.4-3.1-8.5-3.6
	c-2.8-0.4-5.9-0.3-9,0.2C353.1,29.6,348.8,32,345.3,36.1z M202.8,39.7l11.8,0c0.3,0,0.5-0.2,0.6-0.5l1.4-9.7
	c0.1-0.4-0.3-0.8-0.7-0.8h-36.2c-0.3,0-0.6,0.2-0.6,0.5l-1.5,9.9c-0.1,0.3,0.2,0.6,0.5,0.6l11.7,0.1c0.2,0,0.3,0.1,0.3,0.3
	l-4.8,35.2c-0.1,0.5,0.3,0.9,0.8,0.9h10.5c0.4,0,0.8-0.3,0.8-0.7l4.8-35.2C202.3,39.9,202.5,39.7,202.8,39.7z M72.5,59.7
	c8.2-4.1,11.8-10.4,10.7-18.8c-0.4-3.5-1.7-6.2-3.8-8.1c-2.3-2.2-5.3-3.4-8.9-3.6c-6.9-0.4-13.9-0.4-20.8-0.1
	c-0.3,0-0.5,0.2-0.6,0.5l-6.5,45.8c0,0.3,0.2,0.5,0.4,0.5l10.7,0.2c0.4,0,0.8-0.3,0.8-0.8c0.6-4.4,1.2-8.4,1.8-12c0-0.1,0-0.4,0.1-1
	c0.1-1.2,0.7-1.6,1.9-1.2c0.3,0.1,0.5,0.3,0.7,0.6l9,13.8c0.2,0.4,0.6,0.6,1.1,0.6h13c0.8,0,0.9-0.3,0.5-0.9L72.3,60.4
	C72.2,60.1,72.3,59.8,72.5,59.7z M103.8,65.5c-3.3-0.6-4.8-2.5-4.3-5.6c1.4-10,2.8-20.2,4.3-30.4c0-0.3-0.2-0.6-0.5-0.6h-11
	c-0.3,0-0.6,0.2-0.6,0.5c-1.3,9-2.5,17.9-3.7,26.8c-0.7,5-0.7,8.6,0.1,10.8c1.3,4,4.3,6.7,8.8,8.3c4.9,1.7,9.9,1.7,14.8,0
	c5.7-2,9.6-5.3,11.8-10.1c0.8-1.8,1.8-6.5,2.9-14.3c1.1-7.2,2-14.4,3-21.5c0-0.3-0.2-0.5-0.4-0.5h-10.9c-0.3,0-0.5,0.2-0.6,0.5
	c-1.4,9.2-2.7,18.5-4,27.8c-0.4,3.1-1.2,5.2-2.3,6.3C109.4,65.4,107,66,103.8,65.5z M159,57.4c-0.8-3.7-2-7.5-3.7-11.6
	c-3-7.1-5.4-12.6-7.1-16.5c-0.1-0.3-0.4-0.5-0.7-0.5l-10.1,0c-0.4,0-0.6,0.3-0.7,0.6l-6.5,46.1c0,0.3,0.2,0.5,0.4,0.5l10.6,0
	c0.3,0,0.5-0.2,0.6-0.5c1.8-8.5,2.7-17.2,2.7-26.1c0-1.4,0.2-1.5,0.7-0.1c2.8,8.8,6.3,17.5,10.3,26.2c0.2,0.3,0.5,0.6,0.9,0.6
	l10.8-0.1c0.3,0,0.5-0.2,0.6-0.5l6.5-46.2c0-0.3-0.2-0.5-0.4-0.5H163c-0.3,0-0.5,0.2-0.6,0.5c-0.7,4.9-1.5,9.8-2.3,14.6
	c-0.6,3.9-0.8,8.3-0.5,13.3c0,0.3-0.1,0.5-0.2,0.5C159.3,57.9,159,57.7,159,57.4z M231.1,46.1l2.1-16.4c0.1-0.4-0.3-0.8-0.7-0.8
	l-10.7,0c-0.3,0-0.5,0.2-0.6,0.5l-6.4,46c-0.1,0.3,0.2,0.6,0.5,0.6l10.7,0c0.4,0,0.7-0.3,0.7-0.7l2.3-16.7c0-0.3,0.3-0.5,0.6-0.5
	l12.5-0.1c0.4,0,0.7,0.4,0.7,0.8l-2.3,16.4c-0.1,0.4,0.3,0.8,0.7,0.8h10.6c0.3,0,0.5-0.2,0.6-0.5l6.6-46.1c0.1-0.3-0.2-0.7-0.5-0.6
	l-10.9,0c-0.3,0-0.5,0.2-0.6,0.5l-2.5,16.6c0,0.3-0.3,0.5-0.6,0.5h-12.4C231.3,46.6,231.1,46.3,231.1,46.1z M275,57.7l18-0.1
	c0.3,0,0.6-0.2,0.6-0.5l1.4-9.4c0-0.3-0.2-0.5-0.5-0.5h-18.1c-0.3,0-0.5-0.3-0.4-0.5l0.8-5.9c0-0.3,0.3-0.5,0.6-0.5l19.8-0.2
	c0.3,0,0.5-0.2,0.6-0.5l1.4-10.1c0-0.3-0.2-0.5-0.5-0.5l-31.8,0.1c-0.3,0-0.5,0.2-0.6,0.5L260,75.3c-0.1,0.4,0.3,0.8,0.7,0.8h31.2
	c0.5,0,0.9-0.4,1-0.8l1.4-9.8c0.1-0.5-0.3-0.9-0.8-0.9l-19.4-0.2c-0.3,0-0.5-0.2-0.5-0.5l0.8-5.8C274.5,57.9,274.8,57.7,275,57.7z
	 M389.1,29.8l-6.5,45.8c0,0.3,0.2,0.5,0.5,0.5c4.7,0,9.4,0,14.1,0c3.6,0,7.1-0.5,10.5-1.5c6.1-1.7,10.2-5.6,12.2-11.5
	c1-3,2-9.5,3-19.5c0.5-5.3-1.4-9.3-5.9-12c-2.6-1.6-5-2.4-7.1-2.5c-6.2-0.3-12.9-0.3-19.9-0.2C389.6,28.9,389.2,29.3,389.1,29.8z
	 M438.8,64.1l0.8-6c0-0.3,0.3-0.5,0.6-0.5l18.1-0.2c0.3,0,0.5-0.2,0.6-0.5l1.2-8.9c0.1-0.5-0.3-0.9-0.8-0.9h-17.7
	c-0.3,0-0.5-0.2-0.5-0.5l0.9-5.7c0.1-0.5,0.5-0.8,1-0.8l19.3-0.2c0.3,0,0.6-0.2,0.6-0.5l1.4-10.1c0-0.3-0.2-0.5-0.5-0.5h-31.3
	c-0.5,0-0.9,0.3-0.9,0.8l-6.4,45.8c0,0.3,0.2,0.5,0.5,0.5l31.7,0.1c0.4,0,0.6-0.3,0.7-0.6l1.3-10.4c0-0.3-0.2-0.5-0.5-0.5l-19.5-0.1
	C439,64.6,438.8,64.3,438.8,64.1z M179.3,103.7c-0.9-0.2-1.7-0.5-2.4-1c-0.3-0.2-0.6-0.3-0.9-0.3c-0.6,0.1-0.8,0.5-0.7,1
	c0,0.3,0.3,0.6,0.6,0.8c1.6,1.1,3.2,1.5,4.9,1.4c2.4-0.2,3.8-1.2,4.3-3.1c0.4-1.4,0-2.7-0.9-3.8c-0.9-1-2.2-1.7-3.8-2.1
	c-1.9-0.5-2.7-1.6-2.4-3.4c0.1-0.3,0.3-0.6,0.5-0.8c1.4-0.8,2.9-0.8,4.6,0.1c1.1,0.6,1.6,0.4,1.5-0.6c0-0.3-0.2-0.6-0.5-0.8
	c-1.3-0.8-2.7-1.2-4.2-1c-1.4,0.2-2.6,0.8-3.5,2c-1.6,2.1-1,3.9,2,5.4c1.9,1,3.3,1.8,4.2,2.3c0.3,0.2,0.4,0.5,0.5,0.8
	C183.5,103.2,182.3,104.2,179.3,103.7z M271.4,92.1c-1.1,1.2-1.2,2.4-0.2,3.7c1.2,1.5,2.8,2.6,4.9,3.4c1.8,0.6,2.5,1.6,2,2.9
	c-0.3,0.9-1,1.5-2.1,1.7c-1.5,0.3-2.9,0-4.2-1c-0.3-0.2-0.6-0.3-0.9-0.2c-1.2,0.3-1.1,0.9,0.1,1.8c1.8,1.2,3.8,1.5,6.1,0.8
	c1.7-0.5,2.8-1.5,3-3c0.2-1.3-0.1-2.4-1.1-3.5c-1-1-2.2-1.7-3.7-2.1c-1.9-0.5-2.7-1.6-2.4-3.3c0.1-0.3,0.3-0.6,0.5-0.8
	c1.3-0.8,2.7-0.7,4.3,0.2c1.4,0.8,2,0.5,1.6-0.7c-0.1-0.3-0.3-0.6-0.6-0.7C276.1,89.4,273.7,89.8,271.4,92.1z M300.1,105.7
	c3.6,0,6.5-3.5,6.5-7.8c0-4.3-2.9-7.9-6.5-7.9c-3.6,0-6.5,3.5-6.5,7.8C293.6,102.1,296.5,105.7,300.1,105.7z M197.1,102.3
	c-1.8-3.4-3.7-6.7-5.7-10c0-0.1-0.2-0.3-0.4-0.8c-0.3-0.7-0.9-1.1-1.8-1.2c-0.6-0.1-1,0.4-1,0.9v13.4c0,0.3,0.2,0.6,0.4,0.7
	c0.4,0.1,0.7,0.1,1.1,0c0.3-0.1,0.5-0.4,0.5-0.7L190,94.4c0-1.1,0.2-1.2,0.8-0.2c1.9,3.5,3.8,7,5.9,10.4c0.5,0.8,1.1,1.1,1.9,0.8
	c0.3-0.1,0.4-0.4,0.4-0.7V91.2c0-0.3-0.2-0.6-0.5-0.7c-0.8-0.3-1.2,0.2-1.2,1.4c-0.1,3.5,0,6.9,0.2,10.3
	C197.5,102.8,197.3,102.9,197.1,102.3z M205,103.1l0-4.2c0-0.3,0.2-0.5,0.5-0.5l4.6,0c0.3,0,0.5-0.2,0.5-0.5c0-1.3-0.9-1.7-2.5-1.3
	c-2.8,0.7-3.8-0.6-3-4c0.1-0.4,0.4-0.7,0.8-0.7h4.7c0.3,0,0.6-0.2,0.8-0.4c0.5-0.8,0.1-1.2-1-1.2c-2.1,0-4.3,0.1-6.7,0.1
	c-0.3,0-0.5,0.2-0.5,0.5l0.1,13.9c0,0.3,0.2,0.5,0.5,0.5l7.4,0.1c0.3,0,0.6-0.2,0.7-0.4c0.1-0.3,0.1-0.6,0-0.9
	c-0.1-0.3-0.4-0.4-0.7-0.4l-5.7-0.1C205.3,103.6,205,103.4,205,103.1z M217.1,100.9l4.6,0c0.3,0,0.6,0.2,0.7,0.5
	c0.3,1.1,0.6,2.1,0.9,3c0.1,0.4,0.3,0.7,0.6,0.9c0.4,0.2,0.8,0.2,1.2,0.1c0.3-0.1,0.4-0.4,0.3-0.7c-1.5-4.3-2.9-8.7-4.3-13
	c-0.4-1.2-1.2-1.6-2.2-1.2c-0.3,0.1-0.5,0.4-0.6,0.7c-1.5,4.2-3,8.5-4.4,12.7c-0.4,1.3-0.1,1.8,0.9,1.4c0.3-0.1,0.6-0.4,0.6-0.7
	l1.1-3.2C216.5,101.1,216.8,100.9,217.1,100.9z M229.8,97.1c-0.1-1.7-0.1-3.4-0.1-5.1c0-0.5-0.1-0.9-0.2-1.1
	c-0.3-0.5-0.7-0.7-1.3-0.4c-0.3,0.1-0.4,0.4-0.4,0.8v13.4c0,0.3,0.2,0.6,0.5,0.7c1.1,0.5,1.6,0,1.4-1.4c-0.4-2.6,0.4-4.6,2.4-6
	c0.2-0.1,0.5,0,0.6,0.2l4.1,6.8c0.2,0.3,0.5,0.5,0.8,0.5c0.4,0.1,0.7,0,0.8-0.3c0.1-0.2,0-0.5-0.2-0.9c-1.5-2.5-3-5.1-4.4-7.7
	c-0.2-0.3-0.1-0.6,0.1-0.8l3.6-4.6c0.2-0.2,0.1-0.5-0.2-0.6c-0.9-0.2-1.7,0.1-2.4,1.2c-1,1.5-2.5,3.4-4.6,5.5
	C229.9,97.5,229.8,97.4,229.8,97.1z M243,103.1l0-4.2c0-0.3,0.3-0.5,0.6-0.5l4.5-0.1c0.3,0,0.5-0.3,0.5-0.6c0.1-1.2-0.7-1.6-2.4-1.1
	c-2.8,0.7-3.8-0.6-2.9-4.1c0.1-0.3,0.4-0.6,0.8-0.6l4.9,0c0.4,0,0.7-0.2,0.8-0.4c0.1-0.2,0.1-0.4,0-0.6c-0.1-0.3-0.4-0.5-0.8-0.4
	l-7.3,0.1c-0.3,0-0.5,0.3-0.5,0.6v13.6c0,0.3,0.2,0.5,0.5,0.5l7.5,0.1c0.3,0,0.6-0.2,0.7-0.5c0.4-1-0.1-1.4-1.4-1.2
	c-0.6,0.1-2.3,0.1-4.9,0C243.3,103.6,243,103.3,243,103.1z M260.3,98.7c1.3-0.7,2.1-1.4,2.4-2.1c1.1-2.9,0.4-4.8-1.9-5.7
	c-1.8-0.7-4.1-0.8-7.1-0.4c-0.3,0-0.5,0.3-0.5,0.6c-0.2,4.1-0.2,8.2-0.2,12.3c0,0.1,0,0.4-0.1,1c-0.1,0.9,0.5,1.2,1.6,0.9
	c0.3-0.1,0.5-0.3,0.5-0.6v-4.8c0-0.3,0.2-0.6,0.5-0.7c1.6-0.3,2.7,0.1,3.2,1.2c0.7,1.5,1.5,3,2.5,4.4c0.2,0.3,0.4,0.5,0.7,0.6
	c0.3,0.1,0.6,0.1,1,0c0.3-0.1,0.4-0.4,0.2-0.7l-3-5.3C259.9,99.1,260,98.9,260.3,98.7z M288.5,92.1l3-0.2c0.4,0,0.7-0.2,0.8-0.3
	c0.6-0.7,0.3-1.1-0.8-1.1c-1.2-0.1-4.3-0.1-9.2,0.1c-0.3,0-0.6,0.2-0.7,0.5c-0.2,0.9,0.8,1.1,2.8,0.7c0.8-0.2,1.5,0.4,1.5,1.2
	l0.1,11.7c0,0.3,0.2,0.6,0.5,0.7c1.1,0.4,1.6,0,1.5-1.4c-0.1-1.5-0.1-5.2,0-11.2C288.1,92.4,288.3,92.1,288.5,92.1z M312.3,99.1
	c1.2-0.2,2.1,0.1,2.7,1.1c1,1.6,2,3.2,3,4.8c0.4,0.6,0.9,0.8,1.6,0.4c0.3-0.1,0.4-0.4,0.2-0.7l-2.9-5.1c-0.2-0.4-0.1-0.8,0.3-1
	c1.4-0.7,2.3-1.8,2.6-3.1c0.3-1.3,0-2.5-0.8-3.5c-0.9-1.1-2.2-1.7-3.9-1.6c-1.5,0-3,0-4.6,0c-0.4,0-0.7,0.3-0.7,0.7
	c0,4.4,0,8.6,0,12.6c0,1.4,0.5,2,1.5,1.6c0.3-0.1,0.5-0.4,0.5-0.7l0.1-4.9C311.8,99.4,312,99.1,312.3,99.1z M325,103.1l0-4.2
	c0-0.3,0.3-0.5,0.6-0.5l4.5-0.1c0.3,0,0.5-0.3,0.5-0.6c0.1-1.2-0.7-1.6-2.4-1.1c-2.8,0.7-3.8-0.6-3-4.1c0.1-0.3,0.4-0.6,0.8-0.6
	l4.6,0c0.4,0,0.7-0.1,0.9-0.3c0.2-0.3,0.3-0.5,0.1-0.8c-0.2-0.2-0.5-0.3-0.9-0.3l-6.9,0.1c-0.3,0-0.5,0.2-0.5,0.5l0,13.9
	c0,0.3,0.2,0.5,0.5,0.5l7.7,0c0.3,0,0.6-0.2,0.6-0.5c0.1-0.8-0.2-1.2-1.1-1.2c-1.8,0-3.6,0-5.4-0.1C325.3,103.6,325,103.3,325,103.1
	z M169.3,97.6c0-0.4-0.3-0.7-0.7-0.7H52.7c-0.4,0-0.7,0.3-0.7,0.7v0.7c0,0.4,0.3,0.7,0.7,0.7h115.9c0.4,0,0.7-0.3,0.7-0.7V97.6z
	 M455,97.7c0-0.4-0.4-0.8-0.8-0.8H338.5c-0.4,0-0.8,0.4-0.8,0.8v0.4c0,0.4,0.4,0.8,0.8,0.8h115.7c0.5,0,0.8-0.4,0.8-0.8V97.7z"/>
<path class="st6" d="M21.5,24.4l0.2,101.3c0,0.3,0.2,0.5,0.5,0.5c185.1,0.3,333.1,0.3,444.1,0.2c1.2,0,2,0.1,2.5,0.2l-0.2,14.4
	c0,0.5-0.4,0.9-0.8,0.9H6.7c-0.3,0-0.5-0.2-0.5-0.5L6.2,24.9c0-0.3,0.2-0.5,0.5-0.5H21.5z"/>
<path class="st4" d="M307.2,34.8c3.4-3.8,8-5.9,13.8-6.6c8.3-0.9,14.2,2.3,17.4,9.7c0.2,0.5,0,1.1-0.6,1.3l-8.5,3.2
	c-0.4,0.1-0.8,0.1-1.1-0.2c-3.6-3.3-7.2-3.9-11-1.9c-1.7,0.9-2.7,2.5-3,4.8c-0.6,5-1.3,10.1-2.1,15.2c-0.3,1.9,0.4,3.3,2.2,4.2
	c4.2,2,7.8,1.2,10.8-2.6c0.2-0.3,0.5-0.3,0.8-0.2l8.5,4.1c0.3,0.1,0.3,0.4,0.1,0.7c-4,5.6-9,8.8-14.8,9.7c-4.6,0.7-8.8,0-12.7-2
	c-4.7-2.5-7-6.6-6.9-12.5c0-0.5,0.4-3.4,1.1-8.8c0.6-4.4,1-7.3,1.2-8.8C303.1,40.7,304.7,37.6,307.2,34.8z"/>
<path class="st4" d="M345.3,36.1c3.5-4.1,7.9-6.6,13-7.4c3.2-0.5,6.2-0.6,9-0.2c3.2,0.4,6,1.6,8.5,3.6c3.3,2.6,5,6.1,4.9,10.6
	c0,3.2-0.8,8.6-2.3,16.3c-0.8,3.9-1.9,6.9-3.3,8.9c-3,4.2-7.4,6.9-13.2,8.1c-4.7,0.9-9,0.9-12.8-0.2c-5.6-1.6-8.9-4.9-10-10
	c-0.4-2-0.4-4.3,0-7.1c0.7-4.4,1.1-6.7,1.1-6.9c0.5-3.9,1.1-7.4,1.9-10.3C342.7,39.7,343.7,38,345.3,36.1z M354.6,41.9
	c-0.7,0.7-1.1,1.5-1.3,2.5c-0.7,4.9-1.4,9.7-2.1,14.3c-0.2,1.6-0.3,2.8,0,3.5c0.4,1.3,1.3,2.2,2.7,2.7c4.1,1.5,7.6,1,10.4-1.7
	c1-1,1.7-2.5,2.1-4.4c0.9-4.8,1.6-9.9,2.2-15.2c0.2-1.4-0.4-2.5-1.6-3.3C362.5,37.8,358.3,38.3,354.6,41.9z"/>
<path class="st4" d="M202.2,40.2l-4.8,35.2c-0.1,0.4-0.4,0.7-0.8,0.7h-10.5c-0.5,0-0.9-0.4-0.8-0.9l4.8-35.2c0-0.2-0.1-0.3-0.3-0.3
	l-11.7-0.1c-0.3,0-0.6-0.3-0.5-0.6l1.5-9.9c0.1-0.3,0.3-0.5,0.6-0.5h36.2c0.4,0,0.8,0.4,0.7,0.8l-1.4,9.7c0,0.3-0.3,0.5-0.6,0.5
	l-11.8,0C202.5,39.7,202.3,39.9,202.2,40.2z"/>
<path class="st4" d="M72.3,60.4l10.3,14.8c0.4,0.6,0.3,0.9-0.5,0.9h-13c-0.4,0-0.8-0.2-1.1-0.6l-9-13.8c-0.2-0.3-0.4-0.5-0.7-0.6
	c-1.2-0.4-1.8,0-1.9,1.2c0,0.6-0.1,0.9-0.1,1c-0.6,3.6-1.2,7.6-1.8,12c-0.1,0.4-0.4,0.8-0.8,0.8l-10.7-0.2c-0.3,0-0.5-0.3-0.4-0.5
	l6.5-45.8c0-0.3,0.3-0.5,0.6-0.5c6.9-0.3,13.9-0.3,20.8,0.1c3.6,0.2,6.6,1.4,8.9,3.6c2.1,1.9,3.3,4.6,3.8,8.1
	c1.1,8.4-2.5,14.7-10.7,18.8C72.3,59.8,72.2,60.1,72.3,60.4z M68.4,40.3c-2.2-0.4-4.8-0.5-8-0.3c-0.4,0-0.8,0.4-0.9,0.8L58.2,50
	c0,0.3,0.2,0.6,0.5,0.7c1.8,0.1,3.5,0,5.1,0c2.2-0.1,3.8-0.5,4.9-1.3c1.9-1.4,2.7-3.5,2.2-6.4C70.7,41.4,69.9,40.5,68.4,40.3z"/>
<path class="st4" d="M103.8,65.5c3.2,0.6,5.6-0.1,7.4-1.9c1.1-1.2,1.9-3.3,2.3-6.3c1.3-9.3,2.6-18.5,4-27.8c0-0.3,0.3-0.5,0.6-0.5
	h10.9c0.3,0,0.5,0.2,0.4,0.5c-0.9,7.2-1.9,14.4-3,21.5c-1.1,7.7-2.1,12.5-2.9,14.3c-2.2,4.8-6.1,8.2-11.8,10.1
	c-4.9,1.7-9.9,1.7-14.8,0c-4.6-1.6-7.5-4.4-8.8-8.3c-0.7-2.2-0.8-5.8-0.1-10.8c1.2-8.9,2.4-17.8,3.7-26.8c0.1-0.3,0.3-0.5,0.6-0.5
	h11c0.3,0,0.5,0.3,0.5,0.6c-1.5,10.3-3,20.4-4.3,30.4C99.1,63,100.5,64.9,103.8,65.5z"/>
<path class="st4" d="M159.5,57.8c0.2-0.1,0.2-0.2,0.2-0.5c-0.3-5-0.1-9.4,0.5-13.3c0.8-4.8,1.5-9.7,2.3-14.6c0-0.3,0.3-0.5,0.6-0.5
	h10.8c0.3,0,0.5,0.2,0.4,0.5l-6.5,46.2c0,0.3-0.3,0.5-0.6,0.5l-10.8,0.1c-0.4,0-0.7-0.2-0.9-0.6c-4-8.6-7.5-17.4-10.3-26.2
	c-0.4-1.4-0.7-1.3-0.7,0.1c0,8.9-0.9,17.7-2.7,26.1c-0.1,0.3-0.3,0.5-0.6,0.5l-10.6,0c-0.3,0-0.5-0.2-0.4-0.5l6.5-46.1
	c0.1-0.4,0.3-0.6,0.7-0.6l10.1,0c0.3,0,0.6,0.2,0.7,0.5c1.7,3.9,4.1,9.4,7.1,16.5c1.7,4,2.9,7.9,3.7,11.6
	C159,57.7,159.3,57.9,159.5,57.8z"/>
<path class="st4" d="M231.6,46.6h12.4c0.3,0,0.5-0.2,0.6-0.5l2.5-16.6c0-0.3,0.3-0.5,0.6-0.5l10.9,0c0.3,0,0.6,0.3,0.5,0.6
	l-6.6,46.1c0,0.3-0.3,0.5-0.6,0.5h-10.6c-0.4,0-0.8-0.4-0.7-0.8l2.3-16.4c0.1-0.4-0.3-0.8-0.7-0.8l-12.5,0.1c-0.3,0-0.5,0.2-0.6,0.5
	l-2.3,16.7c-0.1,0.4-0.4,0.7-0.7,0.7l-10.7,0c-0.3,0-0.6-0.3-0.5-0.6l6.4-46c0-0.3,0.3-0.5,0.6-0.5l10.7,0c0.4,0,0.8,0.4,0.7,0.8
	l-2.1,16.4C231.1,46.3,231.3,46.6,231.6,46.6z"/>
<path class="st4" d="M274.5,58.2l-0.8,5.8c0,0.3,0.2,0.5,0.5,0.5l19.4,0.2c0.5,0,0.8,0.4,0.8,0.9l-1.4,9.8c-0.1,0.5-0.5,0.8-1,0.8
	h-31.2c-0.4,0-0.8-0.4-0.7-0.8l6.4-45.9c0-0.3,0.3-0.5,0.6-0.5l31.8-0.1c0.3,0,0.5,0.2,0.5,0.5l-1.4,10.1c0,0.3-0.3,0.5-0.6,0.5
	l-19.8,0.2c-0.3,0-0.6,0.2-0.6,0.5l-0.8,5.9c0,0.3,0.2,0.5,0.4,0.5h18.1c0.3,0,0.5,0.2,0.5,0.5l-1.4,9.4c0,0.3-0.3,0.5-0.6,0.5
	l-18,0.1C274.8,57.7,274.5,57.9,274.5,58.2z"/>
<path class="st4" d="M389.1,29.8c0.1-0.5,0.5-0.9,1-0.9c7-0.1,13.6,0,19.9,0.2c2.1,0.1,4.5,0.9,7.1,2.5c4.5,2.7,6.4,6.7,5.9,12
	c-1,10-2,16.5-3,19.5c-2,6-6.1,9.8-12.2,11.5c-3.4,1-7,1.5-10.5,1.5c-4.8,0-9.5,0-14.1,0c-0.3,0-0.5-0.3-0.5-0.5L389.1,29.8z
	 M399.6,40.7l-3.4,23.6c0,0.3,0.2,0.5,0.4,0.5c1.3,0.1,2.6,0.1,3.8,0c1.7-0.1,3-0.3,3.7-0.4c2.9-0.5,4.5-2.4,4.8-5.5
	c0.1-1.4,0.2-2.1,0.2-2.2c0.6-3.7,1.1-7.5,1.6-11.2c0.2-1.4,0.1-2.5-0.4-3.3c-0.6-1.3-1.6-2-2.9-2.2c-2-0.3-4.3-0.3-7.1-0.2
	C400,40,399.7,40.3,399.6,40.7z"/>
<path class="st4" d="M439.3,64.6l19.5,0.1c0.3,0,0.5,0.2,0.5,0.5L458,75.5c0,0.3-0.3,0.6-0.7,0.6l-31.7-0.1c-0.3,0-0.5-0.3-0.5-0.5
	l6.4-45.8c0.1-0.5,0.5-0.8,0.9-0.8h31.3c0.3,0,0.5,0.2,0.5,0.5l-1.4,10.1c0,0.3-0.3,0.5-0.6,0.5L443,40.1c-0.5,0-0.9,0.3-1,0.8
	l-0.9,5.7c0,0.3,0.2,0.5,0.5,0.5h17.7c0.5,0,0.8,0.4,0.8,0.9l-1.2,8.9c-0.1,0.3-0.3,0.5-0.6,0.5l-18.1,0.2c-0.3,0-0.6,0.2-0.6,0.5
	l-0.8,6C438.8,64.3,439,64.6,439.3,64.6z"/>
<path class="st5" d="M354.6,41.9c3.7-3.6,7.8-4.1,12.4-1.5c1.3,0.7,1.8,1.8,1.6,3.3c-0.6,5.3-1.3,10.4-2.2,15.2
	c-0.4,1.9-1,3.4-2.1,4.4c-2.8,2.7-6.2,3.3-10.4,1.7c-1.4-0.5-2.3-1.4-2.7-2.7c-0.2-0.7-0.2-1.9,0-3.5c0.7-4.6,1.4-9.4,2.1-14.3
	C353.5,43.4,354,42.5,354.6,41.9z"/>
<path class="st5" d="M68.4,40.3c1.5,0.3,2.3,1.1,2.6,2.6c0.5,2.9-0.2,5.1-2.2,6.4c-1.1,0.8-2.7,1.2-4.9,1.3c-1.6,0.1-3.3,0.1-5.1,0
	c-0.3,0-0.6-0.3-0.5-0.7l1.3-9.2c0.1-0.5,0.4-0.8,0.9-0.8C63.6,39.7,66.3,39.8,68.4,40.3z"/>
<path class="st5" d="M399.6,40.7c0.1-0.4,0.4-0.8,0.8-0.8c2.7-0.1,5.1-0.1,7.1,0.2c1.3,0.2,2.3,0.9,2.9,2.2c0.4,0.8,0.5,1.9,0.4,3.3
	c-0.5,3.7-1,7.5-1.6,11.2c0,0.1-0.1,0.8-0.2,2.2c-0.3,3.1-1.9,4.9-4.8,5.5c-0.7,0.1-2,0.3-3.7,0.4c-1.2,0.1-2.4,0.1-3.8,0
	c-0.3,0-0.5-0.3-0.4-0.5L399.6,40.7z"/>
<path class="st4" d="M179.3,103.7c2.9,0.5,4.2-0.5,3.7-3.1c-0.1-0.3-0.2-0.6-0.5-0.8c-0.9-0.6-2.3-1.4-4.2-2.3
	c-2.9-1.5-3.6-3.3-2-5.4c0.9-1.2,2.1-1.8,3.5-2c1.5-0.2,2.9,0.2,4.2,1c0.3,0.2,0.5,0.4,0.5,0.8c0.1,1-0.4,1.2-1.5,0.6
	c-1.6-0.9-3.2-0.9-4.6-0.1c-0.3,0.2-0.5,0.4-0.5,0.8c-0.4,1.8,0.4,2.9,2.4,3.4c1.6,0.4,2.8,1.1,3.8,2.1c1,1.1,1.3,2.4,0.9,3.8
	c-0.5,1.9-1.9,3-4.3,3.1c-1.7,0.1-3.3-0.4-4.9-1.4c-0.3-0.2-0.5-0.5-0.6-0.8c-0.1-0.6,0.1-0.9,0.7-1c0.3-0.1,0.6,0,0.9,0.3
	C177.6,103.2,178.4,103.6,179.3,103.7z"/>
<path class="st4" d="M271.4,92.1c2.2-2.3,4.7-2.6,7.4-1c0.3,0.2,0.5,0.4,0.6,0.7c0.4,1.3-0.2,1.5-1.6,0.7c-1.6-0.9-3.1-0.9-4.3-0.2
	c-0.3,0.2-0.5,0.4-0.5,0.8c-0.3,1.7,0.5,2.8,2.4,3.3c1.5,0.4,2.7,1.1,3.7,2.1c1,1.1,1.4,2.2,1.1,3.5c-0.3,1.5-1.3,2.5-3,3
	c-2.3,0.7-4.3,0.4-6.1-0.8c-1.2-0.8-1.3-1.4-0.1-1.8c0.3-0.1,0.6,0,0.9,0.2c1.3,1,2.7,1.3,4.2,1c1.1-0.2,1.8-0.8,2.1-1.7
	c0.4-1.3-0.2-2.3-2-2.9c-2-0.7-3.7-1.8-4.9-3.4C270.2,94.5,270.3,93.3,271.4,92.1z"/>
<path class="st4" d="M300.1,105.7c-3.6,0-6.5-3.5-6.5-7.9c0-4.3,2.9-7.8,6.5-7.8c3.6,0,6.5,3.5,6.5,7.9
	C306.6,102.2,303.7,105.7,300.1,105.7z M300.1,104c2.4,0,4.4-2.7,4.5-6.1c0-3.4-1.9-6.1-4.4-6.1c-2.4,0-4.4,2.7-4.5,6.1
	C295.7,101.2,297.7,103.9,300.1,104z"/>
<path class="st4" d="M197.1,102.3c0.3,0.5,0.4,0.5,0.4-0.1c-0.2-3.4-0.3-6.9-0.2-10.3c0-1.2,0.4-1.7,1.2-1.4
	c0.3,0.1,0.5,0.4,0.5,0.7v13.4c0,0.3-0.2,0.6-0.4,0.7c-0.8,0.3-1.4,0-1.9-0.8c-2-3.4-4-6.9-5.9-10.4c-0.5-1-0.8-0.9-0.8,0.2
	l0.3,10.3c0,0.3-0.2,0.6-0.5,0.7c-0.4,0.1-0.7,0.1-1.1,0c-0.3-0.1-0.4-0.4-0.4-0.7V91.3c0-0.6,0.5-1,1-0.9c0.9,0.1,1.5,0.5,1.8,1.2
	c0.2,0.5,0.3,0.7,0.4,0.8C193.4,95.6,195.3,98.9,197.1,102.3z"/>
<path class="st4" d="M205.6,103.6l5.7,0.1c0.4,0,0.6,0.2,0.7,0.4c0.1,0.3,0.1,0.6,0,0.9c-0.1,0.3-0.4,0.4-0.7,0.4l-7.4-0.1
	c-0.3,0-0.5-0.2-0.5-0.5l-0.1-13.9c0-0.3,0.2-0.5,0.5-0.5c2.4,0,4.6,0,6.7-0.1c1.2,0,1.5,0.4,1,1.2c-0.2,0.3-0.4,0.4-0.8,0.4h-4.7
	c-0.4,0-0.8,0.3-0.8,0.7c-0.8,3.4,0.2,4.7,3,4c1.6-0.4,2.5,0,2.5,1.3c0,0.3-0.2,0.5-0.5,0.5l-4.6,0c-0.3,0-0.5,0.2-0.5,0.5l0,4.2
	C205,103.4,205.3,103.6,205.6,103.6z"/>
<path class="st4" d="M216.4,101.4l-1.1,3.2c-0.1,0.3-0.3,0.6-0.6,0.7c-1.1,0.4-1.4,0-0.9-1.4c1.4-4.3,2.9-8.5,4.4-12.7
	c0.1-0.3,0.3-0.6,0.6-0.7c1.1-0.4,1.8,0,2.2,1.2c1.4,4.3,2.9,8.7,4.3,13c0.1,0.3,0,0.6-0.3,0.7c-0.4,0.1-0.8,0.1-1.2-0.1
	c-0.3-0.1-0.5-0.4-0.6-0.9c-0.3-0.9-0.6-1.9-0.9-3c-0.1-0.3-0.4-0.5-0.7-0.5l-4.6,0C216.8,100.9,216.5,101.1,216.4,101.4z
	 M218.9,93.3l-1.5,5.3c-0.1,0.3,0.1,0.5,0.4,0.5l3.3,0c0.3,0,0.4-0.3,0.4-0.5l-1.6-5.3C219.5,92.3,219.2,92.3,218.9,93.3z"/>
<path class="st4" d="M230.2,97.2c2.1-2.1,3.7-4,4.6-5.5c0.7-1,1.5-1.4,2.4-1.2c0.2,0.1,0.3,0.4,0.2,0.6l-3.6,4.6
	c-0.2,0.2-0.2,0.6-0.1,0.8c1.4,2.6,2.9,5.2,4.4,7.7c0.2,0.4,0.3,0.7,0.2,0.9c-0.1,0.3-0.4,0.3-0.8,0.3c-0.3-0.1-0.6-0.3-0.8-0.5
	l-4.1-6.8c-0.1-0.2-0.4-0.3-0.6-0.2c-2,1.4-2.8,3.4-2.4,6c0.2,1.4-0.3,1.8-1.4,1.4c-0.3-0.1-0.5-0.4-0.5-0.7V91.2
	c0-0.3,0.2-0.6,0.4-0.8c0.6-0.3,1-0.2,1.3,0.4c0.1,0.3,0.2,0.6,0.2,1.1c0,1.7,0,3.4,0.1,5.1C229.8,97.4,229.9,97.5,230.2,97.2z"/>
<path class="st4" d="M243.6,103.6c2.6,0.1,4.3,0.1,4.9,0c1.3-0.1,1.8,0.3,1.4,1.2c-0.1,0.3-0.4,0.5-0.7,0.5l-7.5-0.1
	c-0.3,0-0.5-0.2-0.5-0.5V91.1c0-0.3,0.2-0.5,0.5-0.6l7.3-0.1c0.4,0,0.7,0.2,0.8,0.4c0.1,0.2,0.1,0.4,0,0.6c-0.1,0.3-0.4,0.4-0.8,0.4
	l-4.9,0c-0.4,0-0.7,0.3-0.8,0.6c-0.8,3.5,0.2,4.8,2.9,4.1c1.7-0.4,2.5-0.1,2.4,1.1c0,0.3-0.3,0.5-0.5,0.6l-4.5,0.1
	c-0.3,0-0.6,0.2-0.6,0.5l0,4.2C243,103.3,243.3,103.6,243.6,103.6z"/>
<path class="st4" d="M260.1,99.4l3,5.3c0.1,0.3,0,0.6-0.2,0.7c-0.3,0.1-0.6,0.1-1,0c-0.3-0.1-0.5-0.3-0.7-0.6
	c-1-1.4-1.8-2.8-2.5-4.4c-0.5-1.1-1.6-1.5-3.2-1.2c-0.3,0.1-0.5,0.3-0.5,0.7v4.8c0,0.3-0.2,0.6-0.5,0.6c-1.1,0.3-1.7,0-1.6-0.9
	c0.1-0.6,0.1-0.9,0.1-1c-0.1-4.1,0-8.2,0.2-12.3c0-0.3,0.2-0.5,0.5-0.6c2.9-0.4,5.3-0.3,7.1,0.4c2.3,0.9,3,2.8,1.9,5.7
	c-0.3,0.8-1.1,1.5-2.4,2.1C260,98.9,259.9,99.1,260.1,99.4z M261,94.8c0.4-1.7-0.3-2.6-2.2-2.9c-1-0.1-1.7-0.2-2.2-0.2
	c-1.2,0-1.8,0.5-1.8,1.6c0,1.2,0,2.1,0,2.6c0.2,1.3,1.4,1.7,3.8,1.2C259.9,96.8,260.7,96.1,261,94.8z"/>
<path class="st4" d="M288,92.7c-0.1,6-0.1,9.7,0,11.2c0.1,1.4-0.4,1.8-1.5,1.4c-0.3-0.1-0.5-0.4-0.5-0.7l-0.1-11.7
	c0-0.8-0.7-1.4-1.5-1.2c-2,0.4-3,0.1-2.8-0.7c0-0.3,0.3-0.5,0.7-0.5c4.9-0.1,8-0.1,9.2-0.1c1.1,0.1,1.4,0.4,0.8,1.1
	c-0.1,0.2-0.4,0.3-0.8,0.3l-3,0.2C288.3,92.1,288.1,92.4,288,92.7z"/>
<path class="st4" d="M311.8,99.7l-0.1,4.9c0,0.3-0.2,0.6-0.5,0.7c-1,0.3-1.5-0.2-1.5-1.6c0-4,0-8.2,0-12.6c0-0.4,0.3-0.7,0.7-0.7
	c1.6,0,3.1,0,4.6,0c1.7,0,3,0.5,3.9,1.6c0.8,1,1.1,2.2,0.8,3.5c-0.3,1.3-1.1,2.4-2.6,3.1c-0.4,0.2-0.5,0.6-0.3,1l2.9,5.1
	c0.1,0.3,0,0.6-0.2,0.7c-0.7,0.3-1.2,0.2-1.6-0.4c-1-1.6-2-3.2-3-4.8c-0.6-1-1.5-1.3-2.7-1.1C312,99.1,311.8,99.4,311.8,99.7z
	 M317.6,95.7c1.1-1.3,0.9-2.4-0.6-3.1c-1.5-0.7-3.1-1-4.7-0.8c-0.3,0-0.5,0.3-0.5,0.6l-0.1,4.2c0,0.3,0.2,0.6,0.5,0.7
	C314.4,97.9,316.2,97.4,317.6,95.7z"/>
<path class="st4" d="M325.6,103.6c1.8,0.1,3.6,0.1,5.4,0.1c0.8,0,1.2,0.4,1.1,1.2c0,0.3-0.3,0.5-0.6,0.5l-7.7,0
	c-0.3,0-0.5-0.2-0.5-0.5l0-13.9c0-0.3,0.2-0.5,0.5-0.5l6.9-0.1c0.4,0,0.7,0.1,0.9,0.3c0.2,0.3,0.2,0.5-0.1,0.8
	c-0.2,0.2-0.5,0.3-0.9,0.3l-4.6,0c-0.4,0-0.7,0.2-0.8,0.6c-0.8,3.5,0.2,4.8,3,4.1c1.7-0.4,2.4-0.1,2.4,1.1c0,0.3-0.3,0.5-0.5,0.6
	l-4.5,0.1c-0.3,0-0.6,0.2-0.6,0.5l0,4.2C325,103.3,325.3,103.6,325.6,103.6z"/>
<path class="st5" d="M261,94.8c-0.3,1.2-1.1,2-2.3,2.3c-2.4,0.5-3.7,0.1-3.8-1.2c-0.1-0.5-0.1-1.3,0-2.6c0-1.1,0.6-1.7,1.8-1.6
	c0.5,0,1.2,0.1,2.2,0.2C260.7,92.2,261.4,93.2,261,94.8z"/>
<ellipse transform="matrix(8.726535e-03 -1 1 8.726535e-03 199.6777 397.1309)" class="st5" cx="300.1" cy="97.9" rx="6.1" ry="4.4"/>
<path class="st5" d="M317.6,95.7c-1.4,1.7-3.2,2.2-5.3,1.6c-0.3-0.1-0.5-0.3-0.5-0.7l0.1-4.2c0-0.3,0.2-0.5,0.5-0.6
	c1.6-0.2,3.2,0,4.7,0.8C318.4,93.3,318.6,94.4,317.6,95.7z"/>
<path class="st5" d="M218.9,93.3c0.3-1,0.6-1,0.9,0l1.6,5.3c0.1,0.3-0.1,0.5-0.4,0.5l-3.3,0c-0.3,0-0.4-0.3-0.4-0.5L218.9,93.3z"/>
<path class="st7" d="M52.7,96.9h115.9c0.4,0,0.7,0.3,0.7,0.7v0.7c0,0.4-0.3,0.7-0.7,0.7H52.7c-0.4,0-0.7-0.3-0.7-0.7v-0.7
	C52,97.2,52.3,96.9,52.7,96.9z"/>
<path class="st7" d="M338.5,96.9h115.7c0.4,0,0.8,0.4,0.8,0.8v0.4c0,0.4-0.4,0.8-0.8,0.8H338.5c-0.4,0-0.8-0.4-0.8-0.8v-0.4
	C337.7,97.2,338.1,96.9,338.5,96.9z"/>
</svg>
