<?xml version="1.0" encoding="UTF-8" standalone="no"?>
<!DOCTYPE svg PUBLIC "-//W3C//DTD SVG 1.1//EN" "http://www.w3.org/Graphics/SVG/1.1/DTD/svg11.dtd">
<svg xmlns="http://www.w3.org/2000/svg" version="1.1" viewBox="0 0 532 208">
<g stroke-width="2.0" fill="none" stroke-linecap="butt">
<path stroke="#c8c8c8" vector-effect="non-scaling-stroke" d="
  M 28.71 48.25
  L 14.04 48.25
  C 13.74 48.25 13.50 48.49 13.50 48.79
  L 13.44 165.23
  C 13.44 165.52 13.67 165.75 13.95 165.75
  L 474.94 165.75
  C 475.40 165.75 475.77 165.37 475.78 164.89
  L 476.00 150.46"
/>
<path stroke="#919191" vector-effect="non-scaling-stroke" d="
  M 476.00 150.46
  L 492.44 150.22
  C 492.71 150.21 492.93 149.98 492.93 149.69
  L 492.94 31.42
  C 492.94 31.19 492.75 31.00 492.51 31.00
  L 29.30 31.00
  C 29.00 31.00 28.75 31.25 28.75 31.56
  L 28.71 48.25"
/>
<path stroke="#595959" vector-effect="non-scaling-stroke" d="
  M 476.00 150.46
  Q 475.30 150.25 473.50 150.25
  Q 307.11 150.47 29.45 150.06
  C 29.16 150.06 28.93 149.84 28.93 149.56
  L 28.71 48.25"
/>
<path stroke="#919191" vector-effect="non-scaling-stroke" d="
  M 113.56 34.87
  Q 73.69 34.62 33.17 34.75
  C 32.80 34.75 32.50 35.05 32.50 35.42
  L 32.50 146.04
  C 32.50 146.40 32.79 146.69 33.15 146.69
  L 488.31 146.56
  C 488.59 146.56 488.81 146.34 488.81 146.06
  L 488.94 35.30
  C 488.94 35.03 488.72 34.81 488.45 34.81
  Q 311.00 34.57 133.56 34.92
  Q 124.24 34.94 113.56 34.87"
/>
<path stroke="#919191" vector-effect="non-scaling-stroke" d="
  M 314.44 58.69
  Q 310.68 62.88 309.81 68.06
  Q 309.44 70.26 308.57 76.85
  Q 307.51 84.88 307.49 85.65
  Q 307.26 94.50 314.38 98.19
  Q 320.15 101.17 327.06 100.17
  Q 335.84 98.89 341.90 90.50
  C 342.07 90.26 342.00 89.94 341.75 89.82
  L 333.22 85.69
  C 332.96 85.56 332.64 85.64 332.44 85.89
  Q 327.88 91.49 321.65 88.47
  Q 319.02 87.20 319.45 84.30
  Q 320.63 76.55 321.55 69.06
  Q 321.96 65.71 324.56 64.31
  Q 330.25 61.25 335.58 66.16
  C 335.86 66.41 336.27 66.49 336.63 66.35
  L 345.09 63.13
  C 345.63 62.92 345.89 62.31 345.66 61.79
  Q 340.75 50.76 328.23 52.11
  Q 319.48 53.06 314.44 58.69"
/>
<path stroke="#919191" vector-effect="non-scaling-stroke" d="
  M 352.52 60.01
  Q 350.18 62.73 349.50 65.25
  Q 348.33 69.60 347.62 75.51
  Q 347.58 75.86 346.53 82.44
  Q 345.88 86.52 346.50 89.50
  Q 348.10 97.16 356.49 99.54
  Q 362.19 101.15 369.25 99.75
  Q 377.97 98.03 382.45 91.69
  Q 384.54 88.74 385.70 82.82
  Q 387.95 71.28 388.00 66.50
  Q 388.07 59.77 383.06 55.94
  Q 379.25 53.02 374.51 52.37
  Q 370.25 51.78 365.48 52.58
  Q 357.84 53.84 352.52 60.01"
/>
<path stroke="#919191" vector-effect="non-scaling-stroke" d="
  M 210.05 63.55
  L 221.87 63.50
  C 222.16 63.50 222.40 63.29 222.44 63.00
  L 223.82 53.33
  C 223.88 52.89 223.55 52.50 223.12 52.50
  L 186.95 52.50
  C 186.64 52.50 186.39 52.71 186.34 53.00
  L 184.86 62.93
  C 184.81 63.23 185.06 63.50 185.38 63.50
  L 197.09 63.56
  C 197.26 63.56 197.39 63.71 197.37 63.88
  L 192.56 99.07
  C 192.49 99.56 192.87 100.00 193.37 100.00
  L 203.82 100.00
  C 204.24 100.00 204.59 99.69 204.65 99.27
  L 209.49 64.06
  C 209.53 63.77 209.77 63.56 210.05 63.55"
/>
<path stroke="#919191" vector-effect="non-scaling-stroke" d="
  M 79.76 83.59
  Q 92.05 77.42 90.45 64.75
  Q 89.79 59.53 86.69 56.63
  Q 83.17 53.35 77.75 53.04
  Q 67.35 52.45 56.94 52.91
  C 56.65 52.93 56.41 53.15 56.36 53.44
  L 49.88 99.19
  C 49.84 99.48 50.04 99.73 50.32 99.74
  L 61.00 99.94
  C 61.41 99.95 61.77 99.62 61.83 99.19
  Q 62.77 92.63 63.61 87.17
  Q 63.63 87.06 63.70 86.20
  Q 63.83 84.43 65.61 85.01
  C 65.89 85.11 66.15 85.32 66.34 85.61
  L 75.35 99.43
  C 75.58 99.79 75.98 100.00 76.40 100.00
  L 89.45 100.00
  Q 90.58 100.00 89.93 99.06
  L 79.59 84.23
  C 79.44 84.01 79.52 83.71 79.76 83.59"
/>
<path stroke="#919191" vector-effect="non-scaling-stroke" d="
  M 111.08 89.36
  Q 106.11 88.49 106.75 83.75
  Q 108.79 68.74 111.07 53.31
  C 111.11 53.01 110.88 52.75 110.58 52.75
  L 99.59 52.75
  C 99.27 52.75 99.01 52.98 98.96 53.29
  Q 97.03 66.73 95.23 80.08
  Q 94.21 87.60 95.31 90.89
  Q 97.29 96.82 104.14 99.22
  Q 111.55 101.82 118.96 99.24
  Q 127.48 96.29 130.73 89.10
  Q 131.94 86.42 133.65 74.85
  Q 135.24 64.09 136.62 53.31
  C 136.66 53.04 136.45 52.80 136.19 52.80
  L 125.31 52.80
  C 125.02 52.80 124.78 53.02 124.74 53.31
  Q 122.65 67.18 120.72 81.07
  Q 120.08 85.67 118.44 87.41
  Q 115.81 90.19 111.08 89.36"
/>
<path stroke="#919191" vector-effect="non-scaling-stroke" d="
  M 166.23 81.30
  Q 165.02 75.76 162.50 69.75
  Q 158.02 59.06 155.40 53.27
  C 155.27 52.98 154.99 52.80 154.68 52.80
  L 144.61 52.76
  C 144.26 52.75 143.96 53.01 143.91 53.36
  L 137.44 99.48
  C 137.40 99.75 137.61 100.00 137.88 99.99
  L 148.45 99.95
  C 148.74 99.94 148.98 99.74 149.04 99.46
  Q 151.77 86.74 151.75 73.33
  Q 151.75 71.16 152.41 73.23
  Q 156.67 86.46 162.72 99.42
  C 162.88 99.77 163.24 100.00 163.62 100.00
  L 174.44 99.95
  C 174.73 99.94 174.97 99.73 175.01 99.44
  L 181.50 53.26
  C 181.54 52.99 181.32 52.75 181.05 52.75
  L 170.30 52.75
  C 170.01 52.75 169.76 52.97 169.72 53.26
  Q 168.61 60.68 167.44 67.90
  Q 166.50 73.75 166.94 81.19
  Q 166.96 81.62 166.71 81.70
  C 166.52 81.77 166.29 81.58 166.23 81.30"
/>
<path stroke="#919191" vector-effect="non-scaling-stroke" d="
  M 238.36 69.95
  L 240.43 53.58
  C 240.49 53.15 240.16 52.76 239.74 52.76
  L 229.06 52.80
  C 228.77 52.80 228.53 53.01 228.49 53.30
  L 222.07 99.31
  C 222.02 99.64 222.27 99.94 222.60 99.94
  L 233.29 99.99
  C 233.66 99.99 233.97 99.71 234.02 99.34
  L 236.37 82.68
  C 236.41 82.39 236.65 82.17 236.93 82.16
  L 249.41 82.02
  C 249.82 82.01 250.13 82.38 250.07 82.80
  L 247.76 99.19
  C 247.70 99.62 248.03 100.00 248.47 100.00
  L 259.10 100.00
  C 259.39 100.00 259.64 99.78 259.68 99.49
  L 266.27 53.40
  C 266.32 53.06 266.06 52.75 265.72 52.76
  L 254.81 52.80
  C 254.52 52.81 254.28 53.02 254.24 53.31
  L 251.76 69.93
  C 251.72 70.23 251.48 70.45 251.19 70.45
  L 238.81 70.45
  C 238.54 70.45 238.32 70.21 238.36 69.95"
/>
<path stroke="#919191" vector-effect="non-scaling-stroke" d="
  M 282.30 81.56
  L 300.31 81.50
  C 300.64 81.50 300.91 81.27 300.96 80.96
  L 302.38 71.51
  C 302.42 71.24 302.21 71.00 301.93 71.00
  L 283.86 71.00
  C 283.58 71.00 283.37 70.75 283.41 70.48
  L 284.23 64.56
  C 284.27 64.28 284.52 64.07 284.82 64.06
  L 304.57 63.83
  C 304.87 63.82 305.12 63.61 305.15 63.32
  L 306.55 53.26
  C 306.59 52.99 306.37 52.75 306.08 52.75
  L 274.31 52.81
  C 274.02 52.81 273.78 53.03 273.74 53.32
  L 267.29 99.21
  C 267.23 99.63 267.56 100.00 267.98 100.00
  L 299.18 100.00
  C 299.67 100.00 300.08 99.64 300.15 99.16
  L 301.59 89.37
  C 301.66 88.91 301.30 88.50 300.82 88.49
  L 281.44 88.33
  C 281.16 88.32 280.95 88.09 280.98 87.82
  L 281.73 82.06
  C 281.76 81.77 282.01 81.56 282.30 81.56"
/>
<path stroke="#919191" vector-effect="non-scaling-stroke" d="
  M 396.38 53.67
  L 389.90 99.46
  C 389.86 99.75 390.09 100.00 390.38 100.00
  Q 397.37 100.00 404.50 100.00
  Q 409.88 99.99 415.05 98.53
  Q 424.21 95.95 427.25 87.00
  Q 428.78 82.50 430.25 67.50
  Q 431.04 59.49 424.34 55.48
  Q 420.42 53.14 417.25 53.00
  Q 407.88 52.60 397.40 52.77
  C 396.88 52.78 396.45 53.16 396.38 53.67"
/>
<path stroke="#919191" vector-effect="non-scaling-stroke" d="
  M 446.08 87.94
  L 446.86 81.98
  C 446.90 81.70 447.16 81.49 447.48 81.49
  L 465.56 81.33
  C 465.85 81.33 466.09 81.11 466.14 80.81
  L 467.36 71.87
  C 467.42 71.41 467.07 71.00 466.60 71.00
  L 448.91 71.00
  C 448.63 71.00 448.41 70.76 448.45 70.49
  L 449.31 64.79
  C 449.38 64.33 449.80 63.99 450.30 63.99
  L 469.57 63.83
  C 469.87 63.83 470.13 63.62 470.17 63.33
  L 471.58 53.27
  C 471.62 52.99 471.40 52.75 471.11 52.75
  L 439.80 52.75
  C 439.32 52.75 438.92 53.10 438.85 53.57
  L 432.41 99.41
  C 432.37 99.69 432.59 99.94 432.87 99.94
  L 464.53 100.00
  C 464.88 100.00 465.17 99.74 465.22 99.40
  L 466.55 89.01
  C 466.58 88.74 466.37 88.50 466.09 88.50
  L 446.56 88.44
  C 446.27 88.44 446.04 88.20 446.08 87.94"
/>
<path stroke="#919191" vector-effect="non-scaling-stroke" d="
  M 186.58 127.61
  Q 185.21 127.38 184.14 126.57
  C 183.84 126.34 183.51 126.25 183.26 126.31
  Q 182.41 126.50 182.55 127.33
  C 182.59 127.62 182.80 127.89 183.10 128.09
  Q 185.51 129.68 188.00 129.50
  Q 191.56 129.24 192.27 126.36
  Q 192.80 124.23 191.32 122.57
  Q 189.93 121.02 187.56 120.44
  Q 184.64 119.73 185.19 117.06
  C 185.25 116.74 185.45 116.46 185.73 116.30
  Q 187.84 115.09 190.31 116.44
  Q 191.93 117.32 191.77 115.80
  C 191.74 115.49 191.56 115.21 191.28 115.04
  Q 189.28 113.79 187.07 114.04
  Q 184.96 114.28 183.60 116.05
  Q 181.17 119.20 185.56 121.44
  Q 188.47 122.92 189.78 123.78
  C 190.05 123.96 190.23 124.24 190.29 124.55
  Q 190.97 128.35 186.58 127.61"
/>
<path stroke="#919191" vector-effect="non-scaling-stroke" d="
  M 278.68 115.94
  Q 276.97 117.73 278.50 119.67
  Q 280.29 121.96 283.36 123.03
  Q 286.05 123.96 285.39 125.92
  Q 284.92 127.31 283.30 127.64
  Q 281.04 128.10 279.07 126.62
  C 278.80 126.42 278.48 126.34 278.21 126.42
  Q 276.48 126.93 278.31 128.19
  Q 280.99 130.03 284.38 129.00
  Q 286.99 128.21 287.43 125.98
  Q 287.79 124.09 286.30 122.51
  Q 284.83 120.96 282.58 120.38
  Q 279.67 119.63 280.19 117.04
  C 280.25 116.72 280.45 116.45 280.72 116.29
  Q 282.65 115.16 285.06 116.44
  Q 287.23 117.59 286.66 115.71
  C 286.57 115.41 286.36 115.15 286.08 114.98
  Q 282.02 112.47 278.68 115.94"
/>
<path stroke="#919191" vector-effect="non-scaling-stroke" d="
  M 307.3689 129.5399
  C 310.96 129.56 313.89 126.06 313.9099 121.7240
  C 313.93 117.39 311.04 113.86 307.4511 113.8401
  C 303.86 113.82 300.93 117.32 300.9101 121.6560
  C 300.89 125.99 303.78 129.52 307.3689 129.5399"
/>
<path stroke="#919191" vector-effect="non-scaling-stroke" d="
  M 204.32 126.20
  Q 201.60 121.12 198.66 116.18
  Q 198.60 116.09 198.30 115.40
  Q 197.84 114.38 196.53 114.22
  C 195.98 114.16 195.50 114.59 195.50 115.14
  L 195.50 128.50
  C 195.50 128.84 195.68 129.12 195.95 129.22
  Q 196.50 129.41 197.05 129.22
  C 197.33 129.12 197.52 128.83 197.51 128.50
  L 197.25 118.24
  Q 197.21 116.52 198.01 118.02
  Q 200.82 123.27 203.88 128.40
  Q 204.61 129.61 205.75 129.16
  C 206.02 129.05 206.20 128.76 206.20 128.43
  L 206.20 115.06
  C 206.20 114.73 206.01 114.45 205.74 114.36
  Q 204.54 113.96 204.50 115.75
  Q 204.37 120.97 204.68 126.10
  Q 204.74 126.98 204.32 126.20"
/>
<path stroke="#919191" vector-effect="non-scaling-stroke" d="
  M 212.29 126.93
  L 212.27 122.75
  C 212.27 122.47 212.51 122.25 212.80 122.25
  L 217.44 122.21
  C 217.74 122.20 217.98 121.97 217.97 121.68
  Q 217.93 119.77 215.48 120.42
  Q 211.29 121.53 212.51 116.42
  C 212.60 116.03 212.95 115.75 213.35 115.75
  L 218.01 115.75
  C 218.34 115.75 218.63 115.60 218.79 115.35
  Q 219.53 114.15 217.75 114.19
  Q 214.63 114.25 211.02 114.25
  C 210.73 114.25 210.50 114.48 210.50 114.76
  L 210.56 128.70
  C 210.56 128.98 210.78 129.20 211.06 129.20
  L 218.51 129.25
  C 218.85 129.26 219.14 129.08 219.24 128.81
  Q 219.40 128.37 219.24 127.93
  C 219.14 127.68 218.85 127.51 218.50 127.51
  L 212.82 127.45
  C 212.53 127.45 212.29 127.22 212.29 126.93"
/>
<path stroke="#919191" vector-effect="non-scaling-stroke" d="
  M 224.31 124.79
  L 228.95 124.75
  C 229.25 124.75 229.52 124.96 229.60 125.26
  Q 230.10 126.94 230.52 128.27
  Q 230.72 128.92 231.14 129.14
  Q 231.70 129.45 232.31 129.23
  C 232.57 129.14 232.69 128.82 232.59 128.53
  Q 230.41 122.04 228.25 115.54
  Q 227.63 113.67 226.01 114.34
  C 225.74 114.45 225.51 114.71 225.40 115.03
  Q 223.13 121.36 221.03 127.76
  Q 220.38 129.77 221.97 129.15
  C 222.28 129.03 222.52 128.78 222.62 128.46
  L 223.68 125.29
  C 223.78 125.00 224.03 124.80 224.31 124.79"
/>
<path stroke="#919191" vector-effect="non-scaling-stroke" d="
  M 237.05 120.94
  Q 236.97 118.39 236.99 115.84
  Q 237.00 115.08 236.81 114.69
  Q 236.39 113.87 235.49 114.31
  C 235.22 114.44 235.05 114.73 235.05 115.07
  L 235.05 128.44
  C 235.05 128.75 235.23 129.04 235.51 129.15
  Q 237.21 129.84 236.90 127.76
  Q 236.33 123.86 239.33 121.77
  C 239.53 121.63 239.81 121.72 239.95 121.95
  L 244.01 128.79
  C 244.18 129.07 244.46 129.27 244.80 129.33
  Q 245.45 129.45 245.63 129.06
  Q 245.78 128.72 245.42 128.13
  Q 243.11 124.34 240.99 120.43
  C 240.84 120.17 240.87 119.85 241.06 119.61
  L 244.63 114.97
  C 244.79 114.76 244.70 114.46 244.46 114.40
  Q 243.04 114.04 242.06 115.56
  Q 240.58 117.86 237.42 121.08
  Q 237.06 121.44 237.05 120.94"
/>
<path stroke="#919191" vector-effect="non-scaling-stroke" d="
  M 250.29 126.93
  L 250.27 122.76
  C 250.27 122.48 250.52 122.25 250.83 122.24
  L 255.32 122.12
  C 255.62 122.11 255.86 121.87 255.87 121.57
  Q 255.96 119.78 253.48 120.43
  Q 249.29 121.53 250.53 116.33
  C 250.61 116.00 250.92 115.76 251.28 115.75
  L 256.18 115.71
  C 256.56 115.70 256.88 115.53 256.98 115.28
  Q 257.10 115.00 256.98 114.72
  C 256.87 114.45 256.55 114.27 256.19 114.28
  L 248.94 114.39
  C 248.65 114.40 248.41 114.64 248.41 114.94
  L 248.41 128.56
  C 248.41 128.86 248.65 129.10 248.94 129.10
  L 256.44 129.21
  C 256.75 129.22 257.04 129.03 257.16 128.74
  Q 257.74 127.28 255.75 127.50
  Q 254.79 127.61 250.82 127.46
  C 250.52 127.45 250.29 127.21 250.29 126.93"
/>
<path stroke="#919191" vector-effect="non-scaling-stroke" d="
  M 267.51 122.59
  Q 269.52 121.57 269.94 120.44
  Q 271.52 116.14 268.00 114.75
  Q 265.31 113.69 260.93 114.36
  C 260.64 114.40 260.43 114.64 260.41 114.93
  Q 260.13 121.09 260.24 127.25
  Q 260.24 127.33 260.16 128.24
  Q 260.05 129.60 261.75 129.19
  C 262.04 129.12 262.25 128.85 262.25 128.55
  L 262.25 123.75
  C 262.25 123.44 262.47 123.16 262.78 123.10
  Q 265.19 122.60 265.95 124.31
  Q 266.97 126.62 268.42 128.68
  Q 268.73 129.13 269.11 129.24
  Q 269.60 129.38 270.06 129.22
  C 270.31 129.14 270.41 128.82 270.27 128.56
  L 267.31 123.25
  C 267.18 123.01 267.27 122.72 267.51 122.59"
/>
<path stroke="#919191" vector-effect="non-scaling-stroke" d="
  M 295.79 115.94
  L 298.75 115.71
  C 299.14 115.68 299.45 115.56 299.59 115.39
  Q 300.42 114.35 298.75 114.25
  Q 296.93 114.14 289.56 114.30
  C 289.22 114.31 288.94 114.52 288.89 114.79
  Q 288.64 116.10 291.70 115.53
  C 292.47 115.38 293.18 115.97 293.19 116.75
  L 293.31 128.44
  C 293.31 128.76 293.49 129.04 293.76 129.15
  Q 295.35 129.78 295.25 127.75
  Q 295.14 125.56 295.30 116.56
  C 295.31 116.23 295.52 115.96 295.79 115.94"
/>
<path stroke="#919191" vector-effect="non-scaling-stroke" d="
  M 319.54 122.94
  Q 321.30 122.60 322.20 124.03
  Q 323.71 126.41 325.19 128.81
  Q 325.75 129.73 326.81 129.24
  C 327.07 129.12 327.17 128.80 327.03 128.55
  L 324.09 123.48
  C 323.88 123.12 324.00 122.66 324.36 122.48
  Q 326.50 121.39 326.93 119.37
  Q 327.36 117.40 326.13 115.85
  Q 324.81 114.18 322.25 114.22
  Q 320.00 114.25 317.67 114.25
  C 317.30 114.25 317.00 114.55 317.00 114.92
  Q 317.00 121.50 317.00 127.50
  Q 317.00 129.64 318.48 129.13
  C 318.76 129.04 318.94 128.76 318.95 128.43
  L 319.05 123.57
  C 319.06 123.26 319.26 123.00 319.54 122.94"
/>
<path stroke="#919191" vector-effect="non-scaling-stroke" d="
  M 332.29 126.93
  L 332.27 122.76
  C 332.27 122.48 332.52 122.25 332.83 122.24
  L 337.32 122.12
  C 337.62 122.11 337.86 121.87 337.87 121.57
  Q 337.96 119.78 335.48 120.43
  Q 331.29 121.53 332.53 116.34
  C 332.61 115.99 332.93 115.75 333.29 115.75
  L 337.94 115.71
  C 338.31 115.70 338.63 115.58 338.82 115.37
  Q 339.18 114.97 338.88 114.58
  C 338.71 114.37 338.38 114.24 338.00 114.24
  L 331.06 114.30
  C 330.78 114.30 330.56 114.52 330.55 114.80
  L 330.50 128.73
  C 330.50 129.02 330.73 129.25 331.02 129.24
  L 338.69 129.20
  C 339.00 129.20 339.26 128.99 339.31 128.70
  Q 339.51 127.51 338.25 127.52
  Q 335.53 127.54 332.81 127.46
  C 332.52 127.45 332.29 127.21 332.29 126.93"
/>
<path stroke="#949394" vector-effect="non-scaling-stroke" d="
  M 176.51 121.42
  C 176.51 121.05 176.21 120.75 175.84 120.75
  L 59.92 120.75
  C 59.55 120.75 59.25 121.05 59.25 121.42
  L 59.25 122.08
  C 59.25 122.45 59.55 122.75 59.92 122.75
  L 175.84 122.75
  C 176.21 122.75 176.51 122.45 176.51 122.08
  L 176.51 121.42"
/>
<path stroke="#949394" vector-effect="non-scaling-stroke" d="
  M 462.27 121.56
  C 462.27 121.11 461.91 120.75 461.46 120.75
  L 345.80 120.75
  C 345.35 120.75 344.99 121.11 344.99 121.56
  L 344.99 121.94
  C 344.99 122.39 345.35 122.75 345.80 122.75
  L 461.46 122.75
  C 461.91 122.75 462.27 122.39 462.27 121.94
  L 462.27 121.56"
/>
<path stroke="#919191" vector-effect="non-scaling-stroke" d="
  M 361.90 65.73
  C 361.21 66.40 360.77 67.27 360.64 68.21
  Q 359.63 75.63 358.58 82.55
  Q 358.21 84.99 358.53 86.07
  Q 359.10 88.04 361.19 88.81
  Q 367.40 91.11 371.57 87.09
  Q 373.13 85.59 373.66 82.73
  Q 375.01 75.46 375.90 67.52
  Q 376.14 65.35 374.25 64.26
  Q 367.45 60.34 361.90 65.73"
/>
<path stroke="#919191" vector-effect="non-scaling-stroke" d="
  M 75.69 64.12
  Q 72.44 63.49 67.68 63.83
  C 67.23 63.86 66.86 64.20 66.80 64.65
  L 65.49 73.83
  C 65.44 74.17 65.69 74.47 66.03 74.48
  Q 68.75 74.56 71.17 74.44
  Q 74.46 74.28 76.07 73.15
  Q 78.99 71.10 78.25 66.73
  Q 77.87 64.54 75.69 64.12"
/>
<path stroke="#919191" vector-effect="non-scaling-stroke" d="
  M 406.85 64.58
  L 403.44 88.16
  C 403.40 88.44 403.60 88.69 403.88 88.71
  Q 405.89 88.85 407.63 88.72
  Q 410.24 88.54 411.36 88.32
  Q 415.69 87.50 416.19 82.85
  Q 416.41 80.74 416.43 80.66
  Q 417.32 75.06 418.04 69.44
  Q 418.30 67.37 417.68 66.15
  Q 416.72 64.27 414.75 64.00
  Q 411.77 63.59 407.69 63.81
  C 407.26 63.83 406.91 64.16 406.85 64.58"
/>
<path stroke="#919191" vector-effect="non-scaling-stroke" d="
  M 307.3468 127.8198
  C 309.79 127.84 311.79 125.13 311.8198 121.7586
  C 311.85 118.39 309.89 115.64 307.4532 115.6202
  C 305.01 115.60 303.01 118.31 302.9802 121.6814
  C 302.95 125.05 304.91 127.80 307.3468 127.8198"
/>
<path stroke="#919191" vector-effect="non-scaling-stroke" d="
  M 226.19 117.17
  L 224.68 122.46
  C 224.61 122.72 224.80 122.97 225.06 122.97
  L 228.40 122.98
  C 228.65 122.98 228.82 122.73 228.75 122.48
  L 227.10 117.19
  Q 226.63 115.65 226.19 117.17"
/>
<path stroke="#919191" vector-effect="non-scaling-stroke" d="
  M 268.28 118.71
  Q 268.90 116.22 266.09 115.83
  Q 264.62 115.62 263.93 115.59
  Q 262.12 115.52 262.09 117.22
  Q 262.05 119.06 262.13 119.78
  Q 262.37 121.79 265.96 120.98
  Q 267.81 120.55 268.28 118.71"
/>
<path stroke="#919191" vector-effect="non-scaling-stroke" d="
  M 324.81 119.56
  Q 326.43 117.56 324.25 116.50
  Q 322.02 115.42 319.55 115.74
  C 319.26 115.77 319.05 116.02 319.04 116.31
  L 318.99 120.49
  C 318.99 120.80 319.19 121.07 319.47 121.15
  Q 322.75 122.11 324.81 119.56"
/>
</g>
<path fill="#ffffff" d="
  M 0.00 0.00
  Q 266.00 0.00 532.00 0.00
  Q 532.00 104.00 532.00 208.00
  Q 266.00 208.00 0.00 208.00
  Q 0.00 104.00 0.00 0.00
  Z
  M 28.71 48.25
  L 14.04 48.25
  C 13.74 48.25 13.50 48.49 13.50 48.79
  L 13.44 165.23
  C 13.44 165.52 13.67 165.75 13.95 165.75
  L 474.94 165.75
  C 475.40 165.75 475.77 165.37 475.78 164.89
  L 476.00 150.46
  L 492.44 150.22
  C 492.71 150.21 492.93 149.98 492.93 149.69
  L 492.94 31.42
  C 492.94 31.19 492.75 31.00 492.51 31.00
  L 29.30 31.00
  C 29.00 31.00 28.75 31.25 28.75 31.56
  L 28.71 48.25
  Z"
/>
<path fill="#222222" d="
  M 476.00 150.46
  Q 475.30 150.25 473.50 150.25
  Q 307.11 150.47 29.45 150.06
  C 29.16 150.06 28.93 149.84 28.93 149.56
  L 28.71 48.25
  L 28.75 31.56
  C 28.75 31.25 29.00 31.00 29.30 31.00
  L 492.51 31.00
  C 492.75 31.00 492.94 31.19 492.94 31.42
  L 492.93 149.69
  C 492.93 149.98 492.71 150.21 492.44 150.22
  L 476.00 150.46
  Z
  M 113.56 34.87
  Q 73.69 34.62 33.17 34.75
  C 32.80 34.75 32.50 35.05 32.50 35.42
  L 32.50 146.04
  C 32.50 146.40 32.79 146.69 33.15 146.69
  L 488.31 146.56
  C 488.59 146.56 488.81 146.34 488.81 146.06
  L 488.94 35.30
  C 488.94 35.03 488.72 34.81 488.45 34.81
  Q 311.00 34.57 133.56 34.92
  Q 124.24 34.94 113.56 34.87
  Z"
/>
<path fill="#ffffff" d="
  M 133.56 34.92
  Q 311.00 34.57 488.45 34.81
  C 488.72 34.81 488.94 35.03 488.94 35.30
  L 488.81 146.06
  C 488.81 146.34 488.59 146.56 488.31 146.56
  L 33.15 146.69
  C 32.79 146.69 32.50 146.40 32.50 146.04
  L 32.50 35.42
  C 32.50 35.05 32.80 34.75 33.17 34.75
  Q 73.69 34.62 113.56 34.87
  Q 124.24 34.94 133.56 34.92
  Z
  M 314.44 58.69
  Q 310.68 62.88 309.81 68.06
  Q 309.44 70.26 308.57 76.85
  Q 307.51 84.88 307.49 85.65
  Q 307.26 94.50 314.38 98.19
  Q 320.15 101.17 327.06 100.17
  Q 335.84 98.89 341.90 90.50
  C 342.07 90.26 342.00 89.94 341.75 89.82
  L 333.22 85.69
  C 332.96 85.56 332.64 85.64 332.44 85.89
  Q 327.88 91.49 321.65 88.47
  Q 319.02 87.20 319.45 84.30
  Q 320.63 76.55 321.55 69.06
  Q 321.96 65.71 324.56 64.31
  Q 330.25 61.25 335.58 66.16
  C 335.86 66.41 336.27 66.49 336.63 66.35
  L 345.09 63.13
  C 345.63 62.92 345.89 62.31 345.66 61.79
  Q 340.75 50.76 328.23 52.11
  Q 319.48 53.06 314.44 58.69
  Z
  M 352.52 60.01
  Q 350.18 62.73 349.50 65.25
  Q 348.33 69.60 347.62 75.51
  Q 347.58 75.86 346.53 82.44
  Q 345.88 86.52 346.50 89.50
  Q 348.10 97.16 356.49 99.54
  Q 362.19 101.15 369.25 99.75
  Q 377.97 98.03 382.45 91.69
  Q 384.54 88.74 385.70 82.82
  Q 387.95 71.28 388.00 66.50
  Q 388.07 59.77 383.06 55.94
  Q 379.25 53.02 374.51 52.37
  Q 370.25 51.78 365.48 52.58
  Q 357.84 53.84 352.52 60.01
  Z
  M 210.05 63.55
  L 221.87 63.50
  C 222.16 63.50 222.40 63.29 222.44 63.00
  L 223.82 53.33
  C 223.88 52.89 223.55 52.50 223.12 52.50
  L 186.95 52.50
  C 186.64 52.50 186.39 52.71 186.34 53.00
  L 184.86 62.93
  C 184.81 63.23 185.06 63.50 185.38 63.50
  L 197.09 63.56
  C 197.26 63.56 197.39 63.71 197.37 63.88
  L 192.56 99.07
  C 192.49 99.56 192.87 100.00 193.37 100.00
  L 203.82 100.00
  C 204.24 100.00 204.59 99.69 204.65 99.27
  L 209.49 64.06
  C 209.53 63.77 209.77 63.56 210.05 63.55
  Z
  M 79.76 83.59
  Q 92.05 77.42 90.45 64.75
  Q 89.79 59.53 86.69 56.63
  Q 83.17 53.35 77.75 53.04
  Q 67.35 52.45 56.94 52.91
  C 56.65 52.93 56.41 53.15 56.36 53.44
  L 49.88 99.19
  C 49.84 99.48 50.04 99.73 50.32 99.74
  L 61.00 99.94
  C 61.41 99.95 61.77 99.62 61.83 99.19
  Q 62.77 92.63 63.61 87.17
  Q 63.63 87.06 63.70 86.20
  Q 63.83 84.43 65.61 85.01
  C 65.89 85.11 66.15 85.32 66.34 85.61
  L 75.35 99.43
  C 75.58 99.79 75.98 100.00 76.40 100.00
  L 89.45 100.00
  Q 90.58 100.00 89.93 99.06
  L 79.59 84.23
  C 79.44 84.01 79.52 83.71 79.76 83.59
  Z
  M 111.08 89.36
  Q 106.11 88.49 106.75 83.75
  Q 108.79 68.74 111.07 53.31
  C 111.11 53.01 110.88 52.75 110.58 52.75
  L 99.59 52.75
  C 99.27 52.75 99.01 52.98 98.96 53.29
  Q 97.03 66.73 95.23 80.08
  Q 94.21 87.60 95.31 90.89
  Q 97.29 96.82 104.14 99.22
  Q 111.55 101.82 118.96 99.24
  Q 127.48 96.29 130.73 89.10
  Q 131.94 86.42 133.65 74.85
  Q 135.24 64.09 136.62 53.31
  C 136.66 53.04 136.45 52.80 136.19 52.80
  L 125.31 52.80
  C 125.02 52.80 124.78 53.02 124.74 53.31
  Q 122.65 67.18 120.72 81.07
  Q 120.08 85.67 118.44 87.41
  Q 115.81 90.19 111.08 89.36
  Z
  M 166.23 81.30
  Q 165.02 75.76 162.50 69.75
  Q 158.02 59.06 155.40 53.27
  C 155.27 52.98 154.99 52.80 154.68 52.80
  L 144.61 52.76
  C 144.26 52.75 143.96 53.01 143.91 53.36
  L 137.44 99.48
  C 137.40 99.75 137.61 100.00 137.88 99.99
  L 148.45 99.95
  C 148.74 99.94 148.98 99.74 149.04 99.46
  Q 151.77 86.74 151.75 73.33
  Q 151.75 71.16 152.41 73.23
  Q 156.67 86.46 162.72 99.42
  C 162.88 99.77 163.24 100.00 163.62 100.00
  L 174.44 99.95
  C 174.73 99.94 174.97 99.73 175.01 99.44
  L 181.50 53.26
  C 181.54 52.99 181.32 52.75 181.05 52.75
  L 170.30 52.75
  C 170.01 52.75 169.76 52.97 169.72 53.26
  Q 168.61 60.68 167.44 67.90
  Q 166.50 73.75 166.94 81.19
  Q 166.96 81.62 166.71 81.70
  C 166.52 81.77 166.29 81.58 166.23 81.30
  Z
  M 238.36 69.95
  L 240.43 53.58
  C 240.49 53.15 240.16 52.76 239.74 52.76
  L 229.06 52.80
  C 228.77 52.80 228.53 53.01 228.49 53.30
  L 222.07 99.31
  C 222.02 99.64 222.27 99.94 222.60 99.94
  L 233.29 99.99
  C 233.66 99.99 233.97 99.71 234.02 99.34
  L 236.37 82.68
  C 236.41 82.39 236.65 82.17 236.93 82.16
  L 249.41 82.02
  C 249.82 82.01 250.13 82.38 250.07 82.80
  L 247.76 99.19
  C 247.70 99.62 248.03 100.00 248.47 100.00
  L 259.10 100.00
  C 259.39 100.00 259.64 99.78 259.68 99.49
  L 266.27 53.40
  C 266.32 53.06 266.06 52.75 265.72 52.76
  L 254.81 52.80
  C 254.52 52.81 254.28 53.02 254.24 53.31
  L 251.76 69.93
  C 251.72 70.23 251.48 70.45 251.19 70.45
  L 238.81 70.45
  C 238.54 70.45 238.32 70.21 238.36 69.95
  Z
  M 282.30 81.56
  L 300.31 81.50
  C 300.64 81.50 300.91 81.27 300.96 80.96
  L 302.38 71.51
  C 302.42 71.24 302.21 71.00 301.93 71.00
  L 283.86 71.00
  C 283.58 71.00 283.37 70.75 283.41 70.48
  L 284.23 64.56
  C 284.27 64.28 284.52 64.07 284.82 64.06
  L 304.57 63.83
  C 304.87 63.82 305.12 63.61 305.15 63.32
  L 306.55 53.26
  C 306.59 52.99 306.37 52.75 306.08 52.75
  L 274.31 52.81
  C 274.02 52.81 273.78 53.03 273.74 53.32
  L 267.29 99.21
  C 267.23 99.63 267.56 100.00 267.98 100.00
  L 299.18 100.00
  C 299.67 100.00 300.08 99.64 300.15 99.16
  L 301.59 89.37
  C 301.66 88.91 301.30 88.50 300.82 88.49
  L 281.44 88.33
  C 281.16 88.32 280.95 88.09 280.98 87.82
  L 281.73 82.06
  C 281.76 81.77 282.01 81.56 282.30 81.56
  Z
  M 396.38 53.67
  L 389.90 99.46
  C 389.86 99.75 390.09 100.00 390.38 100.00
  Q 397.37 100.00 404.50 100.00
  Q 409.88 99.99 415.05 98.53
  Q 424.21 95.95 427.25 87.00
  Q 428.78 82.50 430.25 67.50
  Q 431.04 59.49 424.34 55.48
  Q 420.42 53.14 417.25 53.00
  Q 407.88 52.60 397.40 52.77
  C 396.88 52.78 396.45 53.16 396.38 53.67
  Z
  M 446.08 87.94
  L 446.86 81.98
  C 446.90 81.70 447.16 81.49 447.48 81.49
  L 465.56 81.33
  C 465.85 81.33 466.09 81.11 466.14 80.81
  L 467.36 71.87
  C 467.42 71.41 467.07 71.00 466.60 71.00
  L 448.91 71.00
  C 448.63 71.00 448.41 70.76 448.45 70.49
  L 449.31 64.79
  C 449.38 64.33 449.80 63.99 450.30 63.99
  L 469.57 63.83
  C 469.87 63.83 470.13 63.62 470.17 63.33
  L 471.58 53.27
  C 471.62 52.99 471.40 52.75 471.11 52.75
  L 439.80 52.75
  C 439.32 52.75 438.92 53.10 438.85 53.57
  L 432.41 99.41
  C 432.37 99.69 432.59 99.94 432.87 99.94
  L 464.53 100.00
  C 464.88 100.00 465.17 99.74 465.22 99.40
  L 466.55 89.01
  C 466.58 88.74 466.37 88.50 466.09 88.50
  L 446.56 88.44
  C 446.27 88.44 446.04 88.20 446.08 87.94
  Z
  M 186.58 127.61
  Q 185.21 127.38 184.14 126.57
  C 183.84 126.34 183.51 126.25 183.26 126.31
  Q 182.41 126.50 182.55 127.33
  C 182.59 127.62 182.80 127.89 183.10 128.09
  Q 185.51 129.68 188.00 129.50
  Q 191.56 129.24 192.27 126.36
  Q 192.80 124.23 191.32 122.57
  Q 189.93 121.02 187.56 120.44
  Q 184.64 119.73 185.19 117.06
  C 185.25 116.74 185.45 116.46 185.73 116.30
  Q 187.84 115.09 190.31 116.44
  Q 191.93 117.32 191.77 115.80
  C 191.74 115.49 191.56 115.21 191.28 115.04
  Q 189.28 113.79 187.07 114.04
  Q 184.96 114.28 183.60 116.05
  Q 181.17 119.20 185.56 121.44
  Q 188.47 122.92 189.78 123.78
  C 190.05 123.96 190.23 124.24 190.29 124.55
  Q 190.97 128.35 186.58 127.61
  Z
  M 278.68 115.94
  Q 276.97 117.73 278.50 119.67
  Q 280.29 121.96 283.36 123.03
  Q 286.05 123.96 285.39 125.92
  Q 284.92 127.31 283.30 127.64
  Q 281.04 128.10 279.07 126.62
  C 278.80 126.42 278.48 126.34 278.21 126.42
  Q 276.48 126.93 278.31 128.19
  Q 280.99 130.03 284.38 129.00
  Q 286.99 128.21 287.43 125.98
  Q 287.79 124.09 286.30 122.51
  Q 284.83 120.96 282.58 120.38
  Q 279.67 119.63 280.19 117.04
  C 280.25 116.72 280.45 116.45 280.72 116.29
  Q 282.65 115.16 285.06 116.44
  Q 287.23 117.59 286.66 115.71
  C 286.57 115.41 286.36 115.15 286.08 114.98
  Q 282.02 112.47 278.68 115.94
  Z
  M 307.3689 129.5399
  C 310.96 129.56 313.89 126.06 313.9099 121.7240
  C 313.93 117.39 311.04 113.86 307.4511 113.8401
  C 303.86 113.82 300.93 117.32 300.9101 121.6560
  C 300.89 125.99 303.78 129.52 307.3689 129.5399
  Z
  M 204.32 126.20
  Q 201.60 121.12 198.66 116.18
  Q 198.60 116.09 198.30 115.40
  Q 197.84 114.38 196.53 114.22
  C 195.98 114.16 195.50 114.59 195.50 115.14
  L 195.50 128.50
  C 195.50 128.84 195.68 129.12 195.95 129.22
  Q 196.50 129.41 197.05 129.22
  C 197.33 129.12 197.52 128.83 197.51 128.50
  L 197.25 118.24
  Q 197.21 116.52 198.01 118.02
  Q 200.82 123.27 203.88 128.40
  Q 204.61 129.61 205.75 129.16
  C 206.02 129.05 206.20 128.76 206.20 128.43
  L 206.20 115.06
  C 206.20 114.73 206.01 114.45 205.74 114.36
  Q 204.54 113.96 204.50 115.75
  Q 204.37 120.97 204.68 126.10
  Q 204.74 126.98 204.32 126.20
  Z
  M 212.29 126.93
  L 212.27 122.75
  C 212.27 122.47 212.51 122.25 212.80 122.25
  L 217.44 122.21
  C 217.74 122.20 217.98 121.97 217.97 121.68
  Q 217.93 119.77 215.48 120.42
  Q 211.29 121.53 212.51 116.42
  C 212.60 116.03 212.95 115.75 213.35 115.75
  L 218.01 115.75
  C 218.34 115.75 218.63 115.60 218.79 115.35
  Q 219.53 114.15 217.75 114.19
  Q 214.63 114.25 211.02 114.25
  C 210.73 114.25 210.50 114.48 210.50 114.76
  L 210.56 128.70
  C 210.56 128.98 210.78 129.20 211.06 129.20
  L 218.51 129.25
  C 218.85 129.26 219.14 129.08 219.24 128.81
  Q 219.40 128.37 219.24 127.93
  C 219.14 127.68 218.85 127.51 218.50 127.51
  L 212.82 127.45
  C 212.53 127.45 212.29 127.22 212.29 126.93
  Z
  M 224.31 124.79
  L 228.95 124.75
  C 229.25 124.75 229.52 124.96 229.60 125.26
  Q 230.10 126.94 230.52 128.27
  Q 230.72 128.92 231.14 129.14
  Q 231.70 129.45 232.31 129.23
  C 232.57 129.14 232.69 128.82 232.59 128.53
  Q 230.41 122.04 228.25 115.54
  Q 227.63 113.67 226.01 114.34
  C 225.74 114.45 225.51 114.71 225.40 115.03
  Q 223.13 121.36 221.03 127.76
  Q 220.38 129.77 221.97 129.15
  C 222.28 129.03 222.52 128.78 222.62 128.46
  L 223.68 125.29
  C 223.78 125.00 224.03 124.80 224.31 124.79
  Z
  M 237.05 120.94
  Q 236.97 118.39 236.99 115.84
  Q 237.00 115.08 236.81 114.69
  Q 236.39 113.87 235.49 114.31
  C 235.22 114.44 235.05 114.73 235.05 115.07
  L 235.05 128.44
  C 235.05 128.75 235.23 129.04 235.51 129.15
  Q 237.21 129.84 236.90 127.76
  Q 236.33 123.86 239.33 121.77
  C 239.53 121.63 239.81 121.72 239.95 121.95
  L 244.01 128.79
  C 244.18 129.07 244.46 129.27 244.80 129.33
  Q 245.45 129.45 245.63 129.06
  Q 245.78 128.72 245.42 128.13
  Q 243.11 124.34 240.99 120.43
  C 240.84 120.17 240.87 119.85 241.06 119.61
  L 244.63 114.97
  C 244.79 114.76 244.70 114.46 244.46 114.40
  Q 243.04 114.04 242.06 115.56
  Q 240.58 117.86 237.42 121.08
  Q 237.06 121.44 237.05 120.94
  Z
  M 250.29 126.93
  L 250.27 122.76
  C 250.27 122.48 250.52 122.25 250.83 122.24
  L 255.32 122.12
  C 255.62 122.11 255.86 121.87 255.87 121.57
  Q 255.96 119.78 253.48 120.43
  Q 249.29 121.53 250.53 116.33
  C 250.61 116.00 250.92 115.76 251.28 115.75
  L 256.18 115.71
  C 256.56 115.70 256.88 115.53 256.98 115.28
  Q 257.10 115.00 256.98 114.72
  C 256.87 114.45 256.55 114.27 256.19 114.28
  L 248.94 114.39
  C 248.65 114.40 248.41 114.64 248.41 114.94
  L 248.41 128.56
  C 248.41 128.86 248.65 129.10 248.94 129.10
  L 256.44 129.21
  C 256.75 129.22 257.04 129.03 257.16 128.74
  Q 257.74 127.28 255.75 127.50
  Q 254.79 127.61 250.82 127.46
  C 250.52 127.45 250.29 127.21 250.29 126.93
  Z
  M 267.51 122.59
  Q 269.52 121.57 269.94 120.44
  Q 271.52 116.14 268.00 114.75
  Q 265.31 113.69 260.93 114.36
  C 260.64 114.40 260.43 114.64 260.41 114.93
  Q 260.13 121.09 260.24 127.25
  Q 260.24 127.33 260.16 128.24
  Q 260.05 129.60 261.75 129.19
  C 262.04 129.12 262.25 128.85 262.25 128.55
  L 262.25 123.75
  C 262.25 123.44 262.47 123.16 262.78 123.10
  Q 265.19 122.60 265.95 124.31
  Q 266.97 126.62 268.42 128.68
  Q 268.73 129.13 269.11 129.24
  Q 269.60 129.38 270.06 129.22
  C 270.31 129.14 270.41 128.82 270.27 128.56
  L 267.31 123.25
  C 267.18 123.01 267.27 122.72 267.51 122.59
  Z
  M 295.79 115.94
  L 298.75 115.71
  C 299.14 115.68 299.45 115.56 299.59 115.39
  Q 300.42 114.35 298.75 114.25
  Q 296.93 114.14 289.56 114.30
  C 289.22 114.31 288.94 114.52 288.89 114.79
  Q 288.64 116.10 291.70 115.53
  C 292.47 115.38 293.18 115.97 293.19 116.75
  L 293.31 128.44
  C 293.31 128.76 293.49 129.04 293.76 129.15
  Q 295.35 129.78 295.25 127.75
  Q 295.14 125.56 295.30 116.56
  C 295.31 116.23 295.52 115.96 295.79 115.94
  Z
  M 319.54 122.94
  Q 321.30 122.60 322.20 124.03
  Q 323.71 126.41 325.19 128.81
  Q 325.75 129.73 326.81 129.24
  C 327.07 129.12 327.17 128.80 327.03 128.55
  L 324.09 123.48
  C 323.88 123.12 324.00 122.66 324.36 122.48
  Q 326.50 121.39 326.93 119.37
  Q 327.36 117.40 326.13 115.85
  Q 324.81 114.18 322.25 114.22
  Q 320.00 114.25 317.67 114.25
  C 317.30 114.25 317.00 114.55 317.00 114.92
  Q 317.00 121.50 317.00 127.50
  Q 317.00 129.64 318.48 129.13
  C 318.76 129.04 318.94 128.76 318.95 128.43
  L 319.05 123.57
  C 319.06 123.26 319.26 123.00 319.54 122.94
  Z
  M 332.29 126.93
  L 332.27 122.76
  C 332.27 122.48 332.52 122.25 332.83 122.24
  L 337.32 122.12
  C 337.62 122.11 337.86 121.87 337.87 121.57
  Q 337.96 119.78 335.48 120.43
  Q 331.29 121.53 332.53 116.34
  C 332.61 115.99 332.93 115.75 333.29 115.75
  L 337.94 115.71
  C 338.31 115.70 338.63 115.58 338.82 115.37
  Q 339.18 114.97 338.88 114.58
  C 338.71 114.37 338.38 114.24 338.00 114.24
  L 331.06 114.30
  C 330.78 114.30 330.56 114.52 330.55 114.80
  L 330.50 128.73
  C 330.50 129.02 330.73 129.25 331.02 129.24
  L 338.69 129.20
  C 339.00 129.20 339.26 128.99 339.31 128.70
  Q 339.51 127.51 338.25 127.52
  Q 335.53 127.54 332.81 127.46
  C 332.52 127.45 332.29 127.21 332.29 126.93
  Z
  M 176.51 121.42
  C 176.51 121.05 176.21 120.75 175.84 120.75
  L 59.92 120.75
  C 59.55 120.75 59.25 121.05 59.25 121.42
  L 59.25 122.08
  C 59.25 122.45 59.55 122.75 59.92 122.75
  L 175.84 122.75
  C 176.21 122.75 176.51 122.45 176.51 122.08
  L 176.51 121.42
  Z
  M 462.27 121.56
  C 462.27 121.11 461.91 120.75 461.46 120.75
  L 345.80 120.75
  C 345.35 120.75 344.99 121.11 344.99 121.56
  L 344.99 121.94
  C 344.99 122.39 345.35 122.75 345.80 122.75
  L 461.46 122.75
  C 461.91 122.75 462.27 122.39 462.27 121.94
  L 462.27 121.56
  Z"
/>
<path fill="#909090" d="
  M 28.71 48.25
  L 28.93 149.56
  C 28.93 149.84 29.16 150.06 29.45 150.06
  Q 307.11 150.47 473.50 150.25
  Q 475.30 150.25 476.00 150.46
  L 475.78 164.89
  C 475.77 165.37 475.40 165.75 474.94 165.75
  L 13.95 165.75
  C 13.67 165.75 13.44 165.52 13.44 165.23
  L 13.50 48.79
  C 13.50 48.49 13.74 48.25 14.04 48.25
  L 28.71 48.25
  Z"
/>
<path fill="#222222" d="
  M 314.44 58.69
  Q 319.48 53.06 328.23 52.11
  Q 340.75 50.76 345.66 61.79
  C 345.89 62.31 345.63 62.92 345.09 63.13
  L 336.63 66.35
  C 336.27 66.49 335.86 66.41 335.58 66.16
  Q 330.25 61.25 324.56 64.31
  Q 321.96 65.71 321.55 69.06
  Q 320.63 76.55 319.45 84.30
  Q 319.02 87.20 321.65 88.47
  Q 327.88 91.49 332.44 85.89
  C 332.64 85.64 332.96 85.56 333.22 85.69
  L 341.75 89.82
  C 342.00 89.94 342.07 90.26 341.90 90.50
  Q 335.84 98.89 327.06 100.17
  Q 320.15 101.17 314.38 98.19
  Q 307.26 94.50 307.49 85.65
  Q 307.51 84.88 308.57 76.85
  Q 309.44 70.26 309.81 68.06
  Q 310.68 62.88 314.44 58.69
  Z"
/>
<path fill="#222222" d="
  M 352.52 60.01
  Q 357.84 53.84 365.48 52.58
  Q 370.25 51.78 374.51 52.37
  Q 379.25 53.02 383.06 55.94
  Q 388.07 59.77 388.00 66.50
  Q 387.95 71.28 385.70 82.82
  Q 384.54 88.74 382.45 91.69
  Q 377.97 98.03 369.25 99.75
  Q 362.19 101.15 356.49 99.54
  Q 348.10 97.16 346.50 89.50
  Q 345.88 86.52 346.53 82.44
  Q 347.58 75.86 347.62 75.51
  Q 348.33 69.60 349.50 65.25
  Q 350.18 62.73 352.52 60.01
  Z
  M 361.90 65.73
  C 361.21 66.40 360.77 67.27 360.64 68.21
  Q 359.63 75.63 358.58 82.55
  Q 358.21 84.99 358.53 86.07
  Q 359.10 88.04 361.19 88.81
  Q 367.40 91.11 371.57 87.09
  Q 373.13 85.59 373.66 82.73
  Q 375.01 75.46 375.90 67.52
  Q 376.14 65.35 374.25 64.26
  Q 367.45 60.34 361.90 65.73
  Z"
/>
<path fill="#222222" d="
  M 209.49 64.06
  L 204.65 99.27
  C 204.59 99.69 204.24 100.00 203.82 100.00
  L 193.37 100.00
  C 192.87 100.00 192.49 99.56 192.56 99.07
  L 197.37 63.88
  C 197.39 63.71 197.26 63.56 197.09 63.56
  L 185.38 63.50
  C 185.06 63.50 184.81 63.23 184.86 62.93
  L 186.34 53.00
  C 186.39 52.71 186.64 52.50 186.95 52.50
  L 223.12 52.50
  C 223.55 52.50 223.88 52.89 223.82 53.33
  L 222.44 63.00
  C 222.40 63.29 222.16 63.50 221.87 63.50
  L 210.05 63.55
  C 209.77 63.56 209.53 63.77 209.49 64.06
  Z"
/>
<path fill="#222222" d="
  M 79.59 84.23
  L 89.93 99.06
  Q 90.58 100.00 89.45 100.00
  L 76.40 100.00
  C 75.98 100.00 75.58 99.79 75.35 99.43
  L 66.34 85.61
  C 66.15 85.32 65.89 85.11 65.61 85.01
  Q 63.83 84.43 63.70 86.20
  Q 63.63 87.06 63.61 87.17
  Q 62.77 92.63 61.83 99.19
  C 61.77 99.62 61.41 99.95 61.00 99.94
  L 50.32 99.74
  C 50.04 99.73 49.84 99.48 49.88 99.19
  L 56.36 53.44
  C 56.41 53.15 56.65 52.93 56.94 52.91
  Q 67.35 52.45 77.75 53.04
  Q 83.17 53.35 86.69 56.63
  Q 89.79 59.53 90.45 64.75
  Q 92.05 77.42 79.76 83.59
  C 79.52 83.71 79.44 84.01 79.59 84.23
  Z
  M 75.69 64.12
  Q 72.44 63.49 67.68 63.83
  C 67.23 63.86 66.86 64.20 66.80 64.65
  L 65.49 73.83
  C 65.44 74.17 65.69 74.47 66.03 74.48
  Q 68.75 74.56 71.17 74.44
  Q 74.46 74.28 76.07 73.15
  Q 78.99 71.10 78.25 66.73
  Q 77.87 64.54 75.69 64.12
  Z"
/>
<path fill="#222222" d="
  M 111.08 89.36
  Q 115.81 90.19 118.44 87.41
  Q 120.08 85.67 120.72 81.07
  Q 122.65 67.18 124.74 53.31
  C 124.78 53.02 125.02 52.80 125.31 52.80
  L 136.19 52.80
  C 136.45 52.80 136.66 53.04 136.62 53.31
  Q 135.24 64.09 133.65 74.85
  Q 131.94 86.42 130.73 89.10
  Q 127.48 96.29 118.96 99.24
  Q 111.55 101.82 104.14 99.22
  Q 97.29 96.82 95.31 90.89
  Q 94.21 87.60 95.23 80.08
  Q 97.03 66.73 98.96 53.29
  C 99.01 52.98 99.27 52.75 99.59 52.75
  L 110.58 52.75
  C 110.88 52.75 111.11 53.01 111.07 53.31
  Q 108.79 68.74 106.75 83.75
  Q 106.11 88.49 111.08 89.36
  Z"
/>
<path fill="#222222" d="
  M 166.71 81.70
  Q 166.96 81.62 166.94 81.19
  Q 166.50 73.75 167.44 67.90
  Q 168.61 60.68 169.72 53.26
  C 169.76 52.97 170.01 52.75 170.30 52.75
  L 181.05 52.75
  C 181.32 52.75 181.54 52.99 181.50 53.26
  L 175.01 99.44
  C 174.97 99.73 174.73 99.94 174.44 99.95
  L 163.62 100.00
  C 163.24 100.00 162.88 99.77 162.72 99.42
  Q 156.67 86.46 152.41 73.23
  Q 151.75 71.16 151.75 73.33
  Q 151.77 86.74 149.04 99.46
  C 148.98 99.74 148.74 99.94 148.45 99.95
  L 137.88 99.99
  C 137.61 100.00 137.40 99.75 137.44 99.48
  L 143.91 53.36
  C 143.96 53.01 144.26 52.75 144.61 52.76
  L 154.68 52.80
  C 154.99 52.80 155.27 52.98 155.40 53.27
  Q 158.02 59.06 162.50 69.75
  Q 165.02 75.76 166.23 81.30
  C 166.29 81.58 166.52 81.77 166.71 81.70
  Z"
/>
<path fill="#222222" d="
  M 238.81 70.45
  L 251.19 70.45
  C 251.48 70.45 251.72 70.23 251.76 69.93
  L 254.24 53.31
  C 254.28 53.02 254.52 52.81 254.81 52.80
  L 265.72 52.76
  C 266.06 52.75 266.32 53.06 266.27 53.40
  L 259.68 99.49
  C 259.64 99.78 259.39 100.00 259.10 100.00
  L 248.47 100.00
  C 248.03 100.00 247.70 99.62 247.76 99.19
  L 250.07 82.80
  C 250.13 82.38 249.82 82.01 249.41 82.02
  L 236.93 82.16
  C 236.65 82.17 236.41 82.39 236.37 82.68
  L 234.02 99.34
  C 233.97 99.71 233.66 99.99 233.29 99.99
  L 222.60 99.94
  C 222.27 99.94 222.02 99.64 222.07 99.31
  L 228.49 53.30
  C 228.53 53.01 228.77 52.80 229.06 52.80
  L 239.74 52.76
  C 240.16 52.76 240.49 53.15 240.43 53.58
  L 238.36 69.95
  C 238.32 70.21 238.54 70.45 238.81 70.45
  Z"
/>
<path fill="#222222" d="
  M 281.73 82.06
  L 280.98 87.82
  C 280.95 88.09 281.16 88.32 281.44 88.33
  L 300.82 88.49
  C 301.30 88.50 301.66 88.91 301.59 89.37
  L 300.15 99.16
  C 300.08 99.64 299.67 100.00 299.18 100.00
  L 267.98 100.00
  C 267.56 100.00 267.23 99.63 267.29 99.21
  L 273.74 53.32
  C 273.78 53.03 274.02 52.81 274.31 52.81
  L 306.08 52.75
  C 306.37 52.75 306.59 52.99 306.55 53.26
  L 305.15 63.32
  C 305.12 63.61 304.87 63.82 304.57 63.83
  L 284.82 64.06
  C 284.52 64.07 284.27 64.28 284.23 64.56
  L 283.41 70.48
  C 283.37 70.75 283.58 71.00 283.86 71.00
  L 301.93 71.00
  C 302.21 71.00 302.42 71.24 302.38 71.51
  L 300.96 80.96
  C 300.91 81.27 300.64 81.50 300.31 81.50
  L 282.30 81.56
  C 282.01 81.56 281.76 81.77 281.73 82.06
  Z"
/>
<path fill="#222222" d="
  M 396.38 53.67
  C 396.45 53.16 396.88 52.78 397.40 52.77
  Q 407.88 52.60 417.25 53.00
  Q 420.42 53.14 424.34 55.48
  Q 431.04 59.49 430.25 67.50
  Q 428.78 82.50 427.25 87.00
  Q 424.21 95.95 415.05 98.53
  Q 409.88 99.99 404.50 100.00
  Q 397.37 100.00 390.38 100.00
  C 390.09 100.00 389.86 99.75 389.90 99.46
  L 396.38 53.67
  Z
  M 406.85 64.58
  L 403.44 88.16
  C 403.40 88.44 403.60 88.69 403.88 88.71
  Q 405.89 88.85 407.63 88.72
  Q 410.24 88.54 411.36 88.32
  Q 415.69 87.50 416.19 82.85
  Q 416.41 80.74 416.43 80.66
  Q 417.32 75.06 418.04 69.44
  Q 418.30 67.37 417.68 66.15
  Q 416.72 64.27 414.75 64.00
  Q 411.77 63.59 407.69 63.81
  C 407.26 63.83 406.91 64.16 406.85 64.58
  Z"
/>
<path fill="#222222" d="
  M 446.56 88.44
  L 466.09 88.50
  C 466.37 88.50 466.58 88.74 466.55 89.01
  L 465.22 99.40
  C 465.17 99.74 464.88 100.00 464.53 100.00
  L 432.87 99.94
  C 432.59 99.94 432.37 99.69 432.41 99.41
  L 438.85 53.57
  C 438.92 53.10 439.32 52.75 439.80 52.75
  L 471.11 52.75
  C 471.40 52.75 471.62 52.99 471.58 53.27
  L 470.17 63.33
  C 470.13 63.62 469.87 63.83 469.57 63.83
  L 450.30 63.99
  C 449.80 63.99 449.38 64.33 449.31 64.79
  L 448.45 70.49
  C 448.41 70.76 448.63 71.00 448.91 71.00
  L 466.60 71.00
  C 467.07 71.00 467.42 71.41 467.36 71.87
  L 466.14 80.81
  C 466.09 81.11 465.85 81.33 465.56 81.33
  L 447.48 81.49
  C 447.16 81.49 446.90 81.70 446.86 81.98
  L 446.08 87.94
  C 446.04 88.20 446.27 88.44 446.56 88.44
  Z"
/>
<path fill="#ffffff" d="
  M 361.90 65.73
  Q 367.45 60.34 374.25 64.26
  Q 376.14 65.35 375.90 67.52
  Q 375.01 75.46 373.66 82.73
  Q 373.13 85.59 371.57 87.09
  Q 367.40 91.11 361.19 88.81
  Q 359.10 88.04 358.53 86.07
  Q 358.21 84.99 358.58 82.55
  Q 359.63 75.63 360.64 68.21
  C 360.77 67.27 361.21 66.40 361.90 65.73
  Z"
/>
<path fill="#ffffff" d="
  M 75.69 64.12
  Q 77.87 64.54 78.25 66.73
  Q 78.99 71.10 76.07 73.15
  Q 74.46 74.28 71.17 74.44
  Q 68.75 74.56 66.03 74.48
  C 65.69 74.47 65.44 74.17 65.49 73.83
  L 66.80 64.65
  C 66.86 64.20 67.23 63.86 67.68 63.83
  Q 72.44 63.49 75.69 64.12
  Z"
/>
<path fill="#ffffff" d="
  M 406.85 64.58
  C 406.91 64.16 407.26 63.83 407.69 63.81
  Q 411.77 63.59 414.75 64.00
  Q 416.72 64.27 417.68 66.15
  Q 418.30 67.37 418.04 69.44
  Q 417.32 75.06 416.43 80.66
  Q 416.41 80.74 416.19 82.85
  Q 415.69 87.50 411.36 88.32
  Q 410.24 88.54 407.63 88.72
  Q 405.89 88.85 403.88 88.71
  C 403.60 88.69 403.40 88.44 403.44 88.16
  L 406.85 64.58
  Z"
/>
<path fill="#222222" d="
  M 186.58 127.61
  Q 190.97 128.35 190.29 124.55
  C 190.23 124.24 190.05 123.96 189.78 123.78
  Q 188.47 122.92 185.56 121.44
  Q 181.17 119.20 183.60 116.05
  Q 184.96 114.28 187.07 114.04
  Q 189.28 113.79 191.28 115.04
  C 191.56 115.21 191.74 115.49 191.77 115.80
  Q 191.93 117.32 190.31 116.44
  Q 187.84 115.09 185.73 116.30
  C 185.45 116.46 185.25 116.74 185.19 117.06
  Q 184.64 119.73 187.56 120.44
  Q 189.93 121.02 191.32 122.57
  Q 192.80 124.23 192.27 126.36
  Q 191.56 129.24 188.00 129.50
  Q 185.51 129.68 183.10 128.09
  C 182.80 127.89 182.59 127.62 182.55 127.33
  Q 182.41 126.50 183.26 126.31
  C 183.51 126.25 183.84 126.34 184.14 126.57
  Q 185.21 127.38 186.58 127.61
  Z"
/>
<path fill="#222222" d="
  M 278.68 115.94
  Q 282.02 112.47 286.08 114.98
  C 286.36 115.15 286.57 115.41 286.66 115.71
  Q 287.23 117.59 285.06 116.44
  Q 282.65 115.16 280.72 116.29
  C 280.45 116.45 280.25 116.72 280.19 117.04
  Q 279.67 119.63 282.58 120.38
  Q 284.83 120.96 286.30 122.51
  Q 287.79 124.09 287.43 125.98
  Q 286.99 128.21 284.38 129.00
  Q 280.99 130.03 278.31 128.19
  Q 276.48 126.93 278.21 126.42
  C 278.48 126.34 278.80 126.42 279.07 126.62
  Q 281.04 128.10 283.30 127.64
  Q 284.92 127.31 285.39 125.92
  Q 286.05 123.96 283.36 123.03
  Q 280.29 121.96 278.50 119.67
  Q 276.97 117.73 278.68 115.94
  Z"
/>
<path fill="#222222" d="
  M 307.3689 129.5399
  C 303.78 129.52 300.89 125.99 300.9101 121.6560
  C 300.93 117.32 303.86 113.82 307.4511 113.8401
  C 311.04 113.86 313.93 117.39 313.9099 121.7240
  C 313.89 126.06 310.96 129.56 307.3689 129.5399
  Z
  M 307.3468 127.8198
  C 309.79 127.84 311.79 125.13 311.8198 121.7586
  C 311.85 118.39 309.89 115.64 307.4532 115.6202
  C 305.01 115.60 303.01 118.31 302.9802 121.6814
  C 302.95 125.05 304.91 127.80 307.3468 127.8198
  Z"
/>
<path fill="#222222" d="
  M 204.32 126.20
  Q 204.74 126.98 204.68 126.10
  Q 204.37 120.97 204.50 115.75
  Q 204.54 113.96 205.74 114.36
  C 206.01 114.45 206.20 114.73 206.20 115.06
  L 206.20 128.43
  C 206.20 128.76 206.02 129.05 205.75 129.16
  Q 204.61 129.61 203.88 128.40
  Q 200.82 123.27 198.01 118.02
  Q 197.21 116.52 197.25 118.24
  L 197.51 128.50
  C 197.52 128.83 197.33 129.12 197.05 129.22
  Q 196.50 129.41 195.95 129.22
  C 195.68 129.12 195.50 128.84 195.50 128.50
  L 195.50 115.14
  C 195.50 114.59 195.98 114.16 196.53 114.22
  Q 197.84 114.38 198.30 115.40
  Q 198.60 116.09 198.66 116.18
  Q 201.60 121.12 204.32 126.20
  Z"
/>
<path fill="#222222" d="
  M 212.82 127.45
  L 218.50 127.51
  C 218.85 127.51 219.14 127.68 219.24 127.93
  Q 219.40 128.37 219.24 128.81
  C 219.14 129.08 218.85 129.26 218.51 129.25
  L 211.06 129.20
  C 210.78 129.20 210.56 128.98 210.56 128.70
  L 210.50 114.76
  C 210.50 114.48 210.73 114.25 211.02 114.25
  Q 214.63 114.25 217.75 114.19
  Q 219.53 114.15 218.79 115.35
  C 218.63 115.60 218.34 115.75 218.01 115.75
  L 213.35 115.75
  C 212.95 115.75 212.60 116.03 212.51 116.42
  Q 211.29 121.53 215.48 120.42
  Q 217.93 119.77 217.97 121.68
  C 217.98 121.97 217.74 122.20 217.44 122.21
  L 212.80 122.25
  C 212.51 122.25 212.27 122.47 212.27 122.75
  L 212.29 126.93
  C 212.29 127.22 212.53 127.45 212.82 127.45
  Z"
/>
<path fill="#222222" d="
  M 223.68 125.29
  L 222.62 128.46
  C 222.52 128.78 222.28 129.03 221.97 129.15
  Q 220.38 129.77 221.03 127.76
  Q 223.13 121.36 225.40 115.03
  C 225.51 114.71 225.74 114.45 226.01 114.34
  Q 227.63 113.67 228.25 115.54
  Q 230.41 122.04 232.59 128.53
  C 232.69 128.82 232.57 129.14 232.31 129.23
  Q 231.70 129.45 231.14 129.14
  Q 230.72 128.92 230.52 128.27
  Q 230.10 126.94 229.60 125.26
  C 229.52 124.96 229.25 124.75 228.95 124.75
  L 224.31 124.79
  C 224.03 124.80 223.78 125.00 223.68 125.29
  Z
  M 226.19 117.17
  L 224.68 122.46
  C 224.61 122.72 224.80 122.97 225.06 122.97
  L 228.40 122.98
  C 228.65 122.98 228.82 122.73 228.75 122.48
  L 227.10 117.19
  Q 226.63 115.65 226.19 117.17
  Z"
/>
<path fill="#222222" d="
  M 237.42 121.08
  Q 240.58 117.86 242.06 115.56
  Q 243.04 114.04 244.46 114.40
  C 244.70 114.46 244.79 114.76 244.63 114.97
  L 241.06 119.61
  C 240.87 119.85 240.84 120.17 240.99 120.43
  Q 243.11 124.34 245.42 128.13
  Q 245.78 128.72 245.63 129.06
  Q 245.45 129.45 244.80 129.33
  C 244.46 129.27 244.18 129.07 244.01 128.79
  L 239.95 121.95
  C 239.81 121.72 239.53 121.63 239.33 121.77
  Q 236.33 123.86 236.90 127.76
  Q 237.21 129.84 235.51 129.15
  C 235.23 129.04 235.05 128.75 235.05 128.44
  L 235.05 115.07
  C 235.05 114.73 235.22 114.44 235.49 114.31
  Q 236.39 113.87 236.81 114.69
  Q 237.00 115.08 236.99 115.84
  Q 236.97 118.39 237.05 120.94
  Q 237.06 121.44 237.42 121.08
  Z"
/>
<path fill="#222222" d="
  M 250.82 127.46
  Q 254.79 127.61 255.75 127.50
  Q 257.74 127.28 257.16 128.74
  C 257.04 129.03 256.75 129.22 256.44 129.21
  L 248.94 129.10
  C 248.65 129.10 248.41 128.86 248.41 128.56
  L 248.41 114.94
  C 248.41 114.64 248.65 114.40 248.94 114.39
  L 256.19 114.28
  C 256.55 114.27 256.87 114.45 256.98 114.72
  Q 257.10 115.00 256.98 115.28
  C 256.88 115.53 256.56 115.70 256.18 115.71
  L 251.28 115.75
  C 250.92 115.76 250.61 116.00 250.53 116.33
  Q 249.29 121.53 253.48 120.43
  Q 255.96 119.78 255.87 121.57
  C 255.86 121.87 255.62 122.11 255.32 122.12
  L 250.83 122.24
  C 250.52 122.25 250.27 122.48 250.27 122.76
  L 250.29 126.93
  C 250.29 127.21 250.52 127.45 250.82 127.46
  Z"
/>
<path fill="#222222" d="
  M 267.31 123.25
  L 270.27 128.56
  C 270.41 128.82 270.31 129.14 270.06 129.22
  Q 269.60 129.38 269.11 129.24
  Q 268.73 129.13 268.42 128.68
  Q 266.97 126.62 265.95 124.31
  Q 265.19 122.60 262.78 123.10
  C 262.47 123.16 262.25 123.44 262.25 123.75
  L 262.25 128.55
  C 262.25 128.85 262.04 129.12 261.75 129.19
  Q 260.05 129.60 260.16 128.24
  Q 260.24 127.33 260.24 127.25
  Q 260.13 121.09 260.41 114.93
  C 260.43 114.64 260.64 114.40 260.93 114.36
  Q 265.31 113.69 268.00 114.75
  Q 271.52 116.14 269.94 120.44
  Q 269.52 121.57 267.51 122.59
  C 267.27 122.72 267.18 123.01 267.31 123.25
  Z
  M 268.28 118.71
  Q 268.90 116.22 266.09 115.83
  Q 264.62 115.62 263.93 115.59
  Q 262.12 115.52 262.09 117.22
  Q 262.05 119.06 262.13 119.78
  Q 262.37 121.79 265.96 120.98
  Q 267.81 120.55 268.28 118.71
  Z"
/>
<path fill="#222222" d="
  M 295.30 116.56
  Q 295.14 125.56 295.25 127.75
  Q 295.35 129.78 293.76 129.15
  C 293.49 129.04 293.31 128.76 293.31 128.44
  L 293.19 116.75
  C 293.18 115.97 292.47 115.38 291.70 115.53
  Q 288.64 116.10 288.89 114.79
  C 288.94 114.52 289.22 114.31 289.56 114.30
  Q 296.93 114.14 298.75 114.25
  Q 300.42 114.35 299.59 115.39
  C 299.45 115.56 299.14 115.68 298.75 115.71
  L 295.79 115.94
  C 295.52 115.96 295.31 116.23 295.30 116.56
  Z"
/>
<path fill="#222222" d="
  M 319.05 123.57
  L 318.95 128.43
  C 318.94 128.76 318.76 129.04 318.48 129.13
  Q 317.00 129.64 317.00 127.50
  Q 317.00 121.50 317.00 114.92
  C 317.00 114.55 317.30 114.25 317.67 114.25
  Q 320.00 114.25 322.25 114.22
  Q 324.81 114.18 326.13 115.85
  Q 327.36 117.40 326.93 119.37
  Q 326.50 121.39 324.36 122.48
  C 324.00 122.66 323.88 123.12 324.09 123.48
  L 327.03 128.55
  C 327.17 128.80 327.07 129.12 326.81 129.24
  Q 325.75 129.73 325.19 128.81
  Q 323.71 126.41 322.20 124.03
  Q 321.30 122.60 319.54 122.94
  C 319.26 123.00 319.06 123.26 319.05 123.57
  Z
  M 324.81 119.56
  Q 326.43 117.56 324.25 116.50
  Q 322.02 115.42 319.55 115.74
  C 319.26 115.77 319.05 116.02 319.04 116.31
  L 318.99 120.49
  C 318.99 120.80 319.19 121.07 319.47 121.15
  Q 322.75 122.11 324.81 119.56
  Z"
/>
<path fill="#222222" d="
  M 332.81 127.46
  Q 335.53 127.54 338.25 127.52
  Q 339.51 127.51 339.31 128.70
  C 339.26 128.99 339.00 129.20 338.69 129.20
  L 331.02 129.24
  C 330.73 129.25 330.50 129.02 330.50 128.73
  L 330.55 114.80
  C 330.56 114.52 330.78 114.30 331.06 114.30
  L 338.00 114.24
  C 338.38 114.24 338.71 114.37 338.88 114.58
  Q 339.18 114.97 338.82 115.37
  C 338.63 115.58 338.31 115.70 337.94 115.71
  L 333.29 115.75
  C 332.93 115.75 332.61 115.99 332.53 116.34
  Q 331.29 121.53 335.48 120.43
  Q 337.96 119.78 337.87 121.57
  C 337.86 121.87 337.62 122.11 337.32 122.12
  L 332.83 122.24
  C 332.52 122.25 332.27 122.48 332.27 122.76
  L 332.29 126.93
  C 332.29 127.21 332.52 127.45 332.81 127.46
  Z"
/>
<path fill="#ffffff" d="
  M 268.28 118.71
  Q 267.81 120.55 265.96 120.98
  Q 262.37 121.79 262.13 119.78
  Q 262.05 119.06 262.09 117.22
  Q 262.12 115.52 263.93 115.59
  Q 264.62 115.62 266.09 115.83
  Q 268.90 116.22 268.28 118.71
  Z"
/>
<ellipse fill="#ffffff" cx="0.00" cy="0.00" transform="translate(307.40,121.72) rotate(90.5)" rx="6.10" ry="4.42"/>
<path fill="#ffffff" d="
  M 324.81 119.56
  Q 322.75 122.11 319.47 121.15
  C 319.19 121.07 318.99 120.80 318.99 120.49
  L 319.04 116.31
  C 319.05 116.02 319.26 115.77 319.55 115.74
  Q 322.02 115.42 324.25 116.50
  Q 326.43 117.56 324.81 119.56
  Z"
/>
<path fill="#ffffff" d="
  M 226.19 117.17
  Q 226.63 115.65 227.10 117.19
  L 228.75 122.48
  C 228.82 122.73 228.65 122.98 228.40 122.98
  L 225.06 122.97
  C 224.80 122.97 224.61 122.72 224.68 122.46
  L 226.19 117.17
  Z"
/>
<rect fill="#282629" x="59.25" y="120.75" width="117.26" height="2.00" rx="0.67"/>
<rect fill="#282629" x="344.99" y="120.75" width="117.28" height="2.00" rx="0.81"/>
</svg>
